<svg width="29" height="11" viewBox="0 0 29 11" fill="none" xmlns="http://www.w3.org/2000/svg">
<path d="M1 11C1.01617 10.4242 4.43531 10.5 10 10.5C15.5647 10.5 19.9838 10.4242 20 11C20 5.43531 16.0647 0.5 10.5 0.5C4.93531 0.5 1 5.43531 1 11Z" fill="#FF4F4F"/>
<rect width="29" height="2" rx="1" transform="matrix(-1 0 0 1 29 9)" fill="#FF4F4F"/>
<path d="M11.5 0.5C11.5 0.776142 11.3284 1 10.5 1C9.67157 1 9.5 0.776142 9.5 0.5C9.5 0.223858 9.67157 0 10.5 0C11.3284 0 11.5 0.223858 11.5 0.5Z" fill="#FF4F4F"/>
</svg>
