<svg width="32" height="9" viewBox="0 0 32 9" fill="none" xmlns="http://www.w3.org/2000/svg">
<rect x="2" y="5" width="24" height="3" fill="#3A0000"/>
<path d="M4.00958 0.510288C4.17922 0.342325 4.40335 0.240591 4.64146 0.223473L7.75 0L11.75 0.25L15.536 0.616383C15.5952 0.622116 15.6538 0.633127 15.7111 0.649284L20.3997 1.97172C20.4664 1.99052 20.5309 2.0162 20.5923 2.04834L25.75 4.75L28.2269 6.23617C29.1396 6.78375 28.6788 8.18863 27.6191 8.08929L1.66802 5.65638C0.914388 5.58572 0.509434 4.73585 0.929305 4.10604L1.94368 2.58448C1.98113 2.5283 2.02417 2.47607 2.07215 2.42857L4.00958 0.510288Z" fill="#740000"/>
<rect x="17" width="1" height="2" rx="0.5" transform="rotate(30 17 0)" fill="#740000"/>
</svg>
