<svg width="43" height="10" viewBox="0 0 43 10" fill="none" xmlns="http://www.w3.org/2000/svg">
<path d="M36.6542 1.46986C36.5286 1.32629 36.3646 1.22163 36.1815 1.16823L34.4294 0.657318C34.3557 0.635844 34.2799 0.622915 34.2033 0.618785L32.0982 0.505296C32.0329 0.501774 31.9674 0.504671 31.9026 0.513946L29.5006 0.857956C29.4466 0.865682 29.3934 0.877807 29.3414 0.894208L26.6638 1.73913L17.7843 5L6.98099 8.03732C5.86228 8.35184 6.08955 10 7.25164 10H40.8064C41.5675 10 42.0496 9.18349 41.682 8.51701L39.7941 5.09432C39.7595 5.03162 39.7183 4.97282 39.6711 4.91892L36.6542 1.46986Z" fill="#77633C"/>
<path d="M6 9.5C6 9.22386 6.22386 9 6.5 9H41.5C41.7761 9 42 9.22386 42 9.5V9.5C42 9.77614 41.7761 10 41.5 10H6.5C6.22386 10 6 9.77614 6 9.5V9.5Z" fill="#594A2C"/>
</svg>
