<svg width="45" height="12" viewBox="0 0 45 12" fill="none" xmlns="http://www.w3.org/2000/svg">
<rect x="17.166" y="9" width="9.80504" height="3" fill="#D9D9D9"/>
<path fill-rule="evenodd" clip-rule="evenodd" d="M26.9952 0.337547L42.9338 6.11991C45.0383 6.88342 44.4905 10 42.2517 10H2.00212C-0.236668 10 -0.784534 6.88341 1.32004 6.1199L17.2582 0.337775C18.7359 0.121107 20.3863 0 22.1274 0C23.8679 0 25.5178 0.121022 26.9952 0.337547Z" fill="#FF5656"/>
<circle cx="14.415" cy="6" r="1" fill="#D9D9D9"/>
<circle cx="41" cy="8" r="1" fill="#D9D9D9"/>
<circle cx="17" cy="3" r="1" fill="#D9D9D9"/>
<circle cx="27.5" cy="3.5" r="1.5" fill="#D9D9D9"/>
<circle cx="20.915" cy="7.5" r="0.5" fill="#D9D9D9"/>
<circle cx="36.915" cy="7.5" r="0.5" fill="#D9D9D9"/>
<circle cx="30.915" cy="5.5" r="0.5" fill="#D9D9D9"/>
<circle cx="22.5" cy="2.5" r="0.5" fill="#D9D9D9"/>
<circle cx="2.5" cy="8.5" r="0.5" fill="#D9D9D9"/>
<circle cx="9.5" cy="5.5" r="0.5" fill="#D9D9D9"/>
<circle cx="23.915" cy="5.5" r="0.5" fill="#D9D9D9"/>
<circle cx="7.41504" cy="8" r="1" fill="#D9D9D9"/>
<circle cx="28.415" cy="8" r="1" fill="#D9D9D9"/>
</svg>
