<svg width="48" height="14" viewBox="0 0 48 14" fill="none" xmlns="http://www.w3.org/2000/svg">
<path d="M0 7.27999H6.4V11.76H0.8V10.64V9.51999L0 8.39999V7.27999Z" fill="#0F2572"/>
<path fill-rule="evenodd" clip-rule="evenodd" d="M0 5.03999H35.2V14H3.2V9.51999C3.2 8.85658 1.964 8.26053 0 7.85037V5.03999Z" fill="#305EFF"/>
<path d="M0 12.88H48V14H0V12.88Z" fill="#262626"/>
<path d="M35.2 5.04C35.2 7.51423 27.3202 5.5 17.6 5.5C7.87979 5.5 0 7.51423 0 5.04C0 2.56576 7.87979 0.559996 17.6 0.559996C27.3202 0.559996 35.2 2.56576 35.2 5.04Z" fill="#305EFF"/>
<path d="M19 0.559996C19 0.869276 18.5523 1.12 18 1.12C17.4477 1.12 17 0.869276 17 0.559996C17 0.250717 17.4477 -3.8147e-06 18 -3.8147e-06C18.5523 -3.8147e-06 19 0.250717 19 0.559996Z" fill="#262626"/>
<path d="M0 11.76H3.2V14H0V11.76Z" fill="#515151"/>
<path fill-rule="evenodd" clip-rule="evenodd" d="M35 6.8H32.5865V7.742H33.8765V11H35V6.8ZM23.42 6.8V11H26.612V10.058H24.608V6.8H23.42ZM27.0821 6.8V11H28.2701V6.8H27.0821ZM30.0093 7.742V11H31.1973V7.742H32.4813V6.8H28.7193V7.742H30.0093Z" fill="#D9D9D9"/>
</svg>
