<svg width="38" height="19" viewBox="0 0 38 19" fill="none" xmlns="http://www.w3.org/2000/svg">
<path d="M0 17.206C0 16.5845 0.571926 16.1204 1.18014 16.2485L4.54622 16.9571C4.68171 16.9856 4.81979 17 4.95824 17H9.5H19H28.5H33.0418C33.1802 17 33.3183 16.9856 33.4538 16.9571L36.8199 16.2485C37.4281 16.1204 38 16.5845 38 17.206V17.206C38 17.6688 37.6759 18.0682 37.223 18.1636L33.4538 18.9571C33.3183 18.9856 33.1802 19 33.0418 19H28.5H19H9.5H4.95824C4.81979 19 4.68171 18.9856 4.54622 18.9571L0.776958 18.1636C0.32414 18.0682 0 17.6688 0 17.206V17.206Z" fill="#222222"/>
<rect x="5.80029" width="26.4" height="18" rx="1" fill="#222222"/>
</svg>
