<svg width="46" height="17" viewBox="0 0 46 17" fill="none" xmlns="http://www.w3.org/2000/svg">
<path fill-rule="evenodd" clip-rule="evenodd" d="M37.8839 10.8182C37.9605 10.565 38 10.3071 38 10.0455C38 6.63133 31.2843 3.86364 23 3.86364C14.7157 3.86364 8 6.63133 8 10.0455C8 10.3071 8.03946 10.565 8.11605 10.8182H8V17H12.5508L12.5508 14.2955L14.5508 13.4497L16.5508 13.1364L18.4395 13.4497L20.5508 14.2955V17H25.5508V14.2955L27.5508 13.4497L29.5508 13.1364L31.4395 13.4497L33.5508 14.2955V17H38V10.8182H37.8839Z" fill="#D9D9D9"/>
<path d="M5.62676 0.881136L6.12695 4.74489L7.62604 6.67655L10.4883 7.50439L8.08177 11.4707L5.12604 9.3811L4.12603 6.29019L5.62676 0.881136Z" fill="#B7C60D"/>
<path d="M7.82924 11.492C7.61991 11.336 7.54469 11.0674 7.65232 10.8603L9.4625 7.3776C9.55933 7.19129 9.78004 7.10276 10.0039 7.16042L11.1259 7.44943L10.6259 8.99489L10.1257 10.154L9.34969 11.2205L8.62583 12.0858L7.82924 11.492Z" fill="#4F4F4F"/>
<path d="M40.3371 0.881033L39.8369 4.74479L38.3378 6.67645L35.4756 7.50429L37.8821 11.4706L40.8378 9.381L41.8378 6.29009L40.3371 0.881033Z" fill="#B7C60D"/>
<path d="M38.1346 11.4919C38.344 11.3359 38.4192 11.0673 38.3115 10.8602L36.5014 7.3775C36.4045 7.19119 36.1838 7.10266 35.96 7.16032L34.838 7.44933L35.338 8.99478L35.8381 10.1539L36.6142 11.2204L37.338 12.0857L38.1346 11.4919Z" fill="#4F4F4F"/>
</svg>
