<svg width="40" height="17" viewBox="0 0 40 17" fill="none" xmlns="http://www.w3.org/2000/svg">
<path d="M34.8581 3.70948C35.3286 4.03519 35.2253 4.75823 34.6825 4.93918V4.93918C34.5631 4.97898 34.4351 4.98558 34.3122 4.95828L30.6084 4.13521C30.236 4.05245 29.849 4.1888 29.6106 4.4867L26.5174 8.35331C26.2172 8.72846 26.2263 9.26402 26.539 9.62879L29.085 12.5992C29.641 13.2479 29.1801 14.25 28.3258 14.25H10.4003C9.4497 14.25 9.0354 13.0484 9.78403 12.4625L18.9208 5.31196C18.9735 5.27076 19.0301 5.23494 19.0899 5.20504L28.9704 0.264799C29.297 0.101505 29.6866 0.129195 29.9868 0.337034L34.8581 3.70948Z" fill="#FF7C7C"/>
<path d="M24.0385 8.99999L23.8884 9.64844L24.3288 9.69113L23.8884 10L23.7557 10.5L23.5385 10L23 10.2427L23.5 9.74274L23.1487 9.5L23.5 9.5L24.0385 8.99999Z" fill="#D9D9D9"/>
<path d="M21.5 5.5L21.1063 6.67748L21.9203 7.48074L20.8893 7.31882L20.4653 8.57198L20.2463 7.51919L19.2317 7.62675L19.857 6.96954L19.2388 6.04563L20.1861 6.36612L21.5 5.5Z" fill="#D9D9D9"/>
<path d="M1.28239 15.8679C1.66048 16.2712 2.18865 16.5 2.74146 16.5H37.2585C37.8114 16.5 38.3395 16.2712 38.7176 15.8679L39.627 14.8979C39.8666 14.6423 40 14.305 40 13.9546V13.9546C40 13.1641 39.3368 12.5354 38.5474 12.5775L30.625 13L20 12.5L9.375 13L1.45256 12.5775C0.663163 12.5354 0 13.1641 0 13.9546V13.9546C0 14.305 0.133362 14.6423 0.373 14.8979L1.28239 15.8679Z" fill="#FF8989"/>
<path d="M26.2994 4.00001L26 4.5L26.5 4.96691L25.8838 4.84411L25.4779 5.60641L25.4519 4.96687L24.5945 4.96687L25.0946 4.5L24.7996 4.00001L25.4779 4.24156L26.2994 4.00001Z" fill="#D9D9D9"/>
</svg>
