<svg width="60" height="16" viewBox="0 0 60 16" fill="none" xmlns="http://www.w3.org/2000/svg">
<path d="M52.605 5.48859C52.9291 5.67378 52.8621 6.15947 52.5 6.25V6.25V6.25C51.8449 6.41378 51.1582 6.40234 50.5089 6.21682L44.9687 4.63391C44.6729 4.54939 44.3546 4.60574 44.1058 4.7867L40.0751 7.71808C39.5369 8.1095 39.5241 8.9076 40.0494 9.31617L43.4494 11.9606C44.201 12.5452 43.7876 13.75 42.8355 13.75H15.3285C14.2826 13.75 13.9387 12.3472 14.866 11.8634L26.9343 5.56689C26.978 5.54407 27.0234 5.52451 27.0701 5.50839L41.7133 0.444934C42.531 0.162189 43.4309 0.246229 44.1821 0.675484L52.605 5.48859Z" fill="#FF7C7C"/>
<path d="M36.0126 8.46376L35.8319 9.12594L36.4938 9.12387L35.8556 9.4767L35.691 9.98901L35.5238 9.49919L34.5426 9.80899L35.257 9.25942L34.7149 9.05287L35.49 9.00033L36.0126 8.46376Z" fill="#D9D9D9"/>
<path d="M29.9542 6.30949L29.682 7.5983L31.0669 8.06529L29.5299 8.30125L29.2329 9.67481L28.6478 8.73992L27.2031 9.23028L27.9435 8.3565L26.8121 7.69824L28.2678 7.64754L29.9542 6.30949Z" fill="#D9D9D9"/>
<path d="M2.29206 15.6299C2.6306 15.8706 3.0357 16 3.45111 16H56.5489C56.9643 16 57.3694 15.8706 57.7079 15.6299L59.4582 14.3853C59.7981 14.1436 60 13.7523 60 13.3352V13.3352C60 12.6056 59.3948 12.0215 58.6657 12.0474L45.9375 12.5L30 12L14.0625 12.5L1.33433 12.0474C0.605198 12.0215 0 12.6056 0 13.3352V13.3352C0 13.7523 0.201889 14.1436 0.541803 14.3853L2.29206 15.6299Z" fill="#FF8989"/>
<path d="M37.4397 3.20958L37.4397 3.79209L38.0001 4.3441L37.1226 4.3441L36.6898 5L36.4435 4.3441L35.5 4.5L36.0817 3.99999L35.9998 3.5L36.6898 3.6202L37.4397 3.20958Z" fill="#D9D9D9"/>
</svg>
