<svg width="32" height="21" viewBox="0 0 32 21" fill="none" xmlns="http://www.w3.org/2000/svg">
<rect y="19" width="32" height="2" rx="1" fill="#FF7C7C"/>
<path d="M17 5L17.449 6.38197H18.9021L17.7265 7.23607L18.1756 8.61803L17 7.76393L15.8244 8.61803L16.2735 7.23607L15.0979 6.38197H16.551L17 5Z" fill="#D9D9D9"/>
<path d="M12.5421 11.0886L12.7796 11.8195H13.5481L12.9264 12.2712L13.1639 13.0021L12.5421 12.5504L11.9204 13.0021L12.1579 12.2712L11.5361 11.8195H12.3046L12.5421 11.0886Z" fill="#D9D9D9"/>
<path d="M19 14L19.2245 14.691H19.9511L19.3633 15.118L19.5878 15.809L19 15.382L18.4122 15.809L18.6367 15.118L18.0489 14.691H18.7755L19 14Z" fill="#D9D9D9"/>
<path fill-rule="evenodd" clip-rule="evenodd" d="M17.0562 0.714857C16.6836 -0.00536537 15.6534 -0.00536537 15.2803 0.714857L5.5391 19.5263C5.19438 20.1919 5.67777 20.9861 6.42729 20.9861H25.9092C26.6592 20.9861 27.1421 20.1919 26.7974 19.5263L17.0562 0.714857Z" fill="#FF7C7C"/>
<path d="M17 5L17.449 6.38197H18.9021L17.7265 7.23607L18.1756 8.61803L17 7.76393L15.8244 8.61803L16.2735 7.23607L15.0979 6.38197H16.551L17 5Z" fill="#D9D9D9"/>
<path d="M12.5 11L12.8368 12.0365H13.9266L13.0449 12.6771L13.3817 13.7135L12.5 13.0729L11.6183 13.7135L11.9551 12.6771L11.0734 12.0365H12.1632L12.5 11Z" fill="#D9D9D9"/>
<path d="M18.4039 15.0664L18.6414 15.6929H19.4099L18.7882 16.0801L19.0257 16.7065L18.4039 16.3194L17.7822 16.7065L18.0197 16.0801L17.398 15.6929H18.1665L18.4039 15.0664Z" fill="#D9D9D9"/>
</svg>
