<svg width="1024" height="590" viewBox="0 0 1024 590" fill="none" xmlns="http://www.w3.org/2000/svg">
<path d="M0 0H1024V452H0V0Z" fill="url(#paint0_linear_277_606)"/>
<g filter="url(#filter0_i_277_606)">
<ellipse cx="664" cy="116.529" rx="22.8" ry="18.5294" fill="#F8F8F8"/>
<ellipse cx="686.8" cy="129.5" rx="22.8" ry="18.5294" fill="#F8F8F8"/>
<ellipse cx="698.2" cy="142.471" rx="22.8" ry="18.5294" fill="#F8F8F8"/>
<ellipse cx="664" cy="142.471" rx="22.8" ry="18.5294" fill="#F8F8F8"/>
<ellipse cx="682.24" cy="142.471" rx="22.8" ry="18.5294" fill="#F8F8F8"/>
<ellipse cx="645.76" cy="142.471" rx="22.8" ry="18.5294" fill="#F8F8F8"/>
<ellipse cx="629.8" cy="142.471" rx="22.8" ry="18.5294" fill="#F8F8F8"/>
<ellipse cx="641.2" cy="129.5" rx="22.8" ry="18.5294" fill="#F8F8F8"/>
</g>
<path d="M0 433.4L250.495 429.2L502.824 425L818.466 433.4H921.233H972.616L1024 427.4V477H0V433.4Z" fill="#6AAF88"/>
<g filter="url(#filter1_d_277_606)">
<rect x="865.641" y="417" width="2" height="21" fill="#966927"/>
<rect x="863.641" y="424" width="4" height="14" fill="#A57225"/>
<rect x="916.641" y="417" width="2" height="21" fill="#966927"/>
<rect x="916.641" y="429" width="2" height="49" transform="rotate(90 916.641 429)" fill="#A57225"/>
<rect x="916.641" y="426" width="2" height="49" transform="rotate(90 916.641 426)" fill="#896022"/>
<rect x="916.641" y="417" width="2" height="49" transform="rotate(90 916.641 417)" fill="#896022"/>
<rect x="916.641" y="420" width="2" height="49" transform="rotate(90 916.641 420)" fill="#896022"/>
<rect x="916.641" y="423" width="2" height="49" transform="rotate(90 916.641 423)" fill="#896022"/>
<rect x="916.641" y="424" width="4" height="14" fill="#A57225"/>
</g>
<path d="M804 398H796V415.5L796.5 420V424.5L796 428.625V430.812L795.5 433H804.5L804 430.812L803.5 428.5V426.5L804 421V415.5V398Z" fill="#533913"/>
<circle cx="10" cy="10" r="10" transform="matrix(-1 0 0 1 810 386)" fill="#45A56E"/>
<circle cx="10" cy="10" r="10" transform="matrix(-1 0 0 1 800 393)" fill="#45A56E"/>
<circle cx="10" cy="10" r="10" transform="matrix(-1 0 0 1 795 400)" fill="#45A56E"/>
<circle cx="10" cy="10" r="10" transform="matrix(-1 0 0 1 810 400)" fill="#45A56E"/>
<circle cx="10" cy="10" r="10" transform="matrix(-1 0 0 1 802 400)" fill="#45A56E"/>
<circle cx="10" cy="10" r="10" transform="matrix(-1 0 0 1 818 400)" fill="#45A56E"/>
<circle cx="10" cy="10" r="10" transform="matrix(-1 0 0 1 825 400)" fill="#45A56E"/>
<circle cx="10" cy="10" r="10" transform="matrix(-1 0 0 1 820 393)" fill="#45A56E"/>
<path d="M733.04 406.12H726.96V419.42L727.34 422.84V426.26L726.96 429.395V431.058L726.58 432.72H733.42L733.04 431.058L732.66 429.3V427.78L733.04 423.6V419.42V406.12Z" fill="#533913"/>
<circle cx="7.6" cy="7.6" r="7.6" transform="matrix(-1 0 0 1 737.6 397)" fill="#45A56E"/>
<circle cx="7.6" cy="7.6" r="7.6" transform="matrix(-1 0 0 1 730 402.32)" fill="#45A56E"/>
<circle cx="7.6" cy="7.6" r="7.6" transform="matrix(-1 0 0 1 726.2 407.64)" fill="#45A56E"/>
<circle cx="7.6" cy="7.6" r="7.6" transform="matrix(-1 0 0 1 737.6 407.64)" fill="#45A56E"/>
<circle cx="7.6" cy="7.6" r="7.6" transform="matrix(-1 0 0 1 731.52 407.64)" fill="#45A56E"/>
<circle cx="7.6" cy="7.6" r="7.6" transform="matrix(-1 0 0 1 743.68 407.64)" fill="#45A56E"/>
<circle cx="7.6" cy="7.6" r="7.6" transform="matrix(-1 0 0 1 749 407.64)" fill="#45A56E"/>
<circle cx="7.6" cy="7.6" r="7.6" transform="matrix(-1 0 0 1 745.2 402.32)" fill="#45A56E"/>
<path d="M642 398H650V415.5L649.5 420V424.5L650 428.625V430.812L650.5 433H641.5L642 430.812L642.5 428.5V426.5L642 421V415.5V398Z" fill="#533913"/>
<circle cx="646" cy="396" r="10" fill="#45A56E"/>
<circle cx="656" cy="403" r="10" fill="#45A56E"/>
<circle cx="661" cy="410" r="10" fill="#45A56E"/>
<circle cx="646" cy="410" r="10" fill="#45A56E"/>
<circle cx="654" cy="410" r="10" fill="#45A56E"/>
<circle cx="638" cy="410" r="10" fill="#45A56E"/>
<circle cx="631" cy="410" r="10" fill="#45A56E"/>
<circle cx="636" cy="403" r="10" fill="#45A56E"/>
<g filter="url(#filter2_d_277_606)">
<circle cx="686.868" cy="422.5" r="22.5" fill="#55DADB"/>
<rect x="664.368" y="423" width="45" height="54" fill="#55DADB"/>
<rect x="674.013" y="438.398" width="45.0658" height="15" transform="rotate(-9.11327 674.013 438.398)" fill="#55DADB"/>
<ellipse cx="719.698" cy="438.665" rx="7.51097" ry="7.5" transform="rotate(-9.11327 719.698 438.665)" fill="#55DADB"/>
<rect x="691.901" y="460.84" width="45.0658" height="15" transform="rotate(-150 691.901 460.84)" fill="#55DADB"/>
<ellipse cx="656.623" cy="431.812" rx="7.51097" ry="7.5" transform="rotate(-150 656.623 431.812)" fill="#55DADB"/>
<circle cx="690.868" cy="414.5" r="2.5" fill="black"/>
<circle cx="681.868" cy="414.5" r="2.5" fill="black"/>
<path d="M680.641 422.5L683.641 424L686.641 424.5L689.641 424L692.641 422.5" stroke="black" stroke-width="2" stroke-linecap="round"/>
<circle cx="690.868" cy="409.5" r="2.5" fill="#55DADB"/>
<path d="M693.641 417.5C693.641 418.881 692.521 420 691.141 420C689.76 420 688.641 418.881 688.641 417.5C688.641 416.119 689.76 415 691.141 415C692.521 415 693.641 416.119 693.641 417.5Z" fill="#55DADB"/>
<path d="M684.429 417.5C684.429 418.881 683.309 420 681.929 420C680.548 420 679.429 418.881 679.429 417.5C679.429 416.119 680.548 415 681.929 415C683.309 415 684.429 416.119 684.429 417.5Z" fill="#55DADB"/>
</g>
<path d="M694.47 408.294L689.641 407" stroke="black" stroke-width="2" stroke-linecap="round"/>
<path d="M683.47 407L678.641 408.294" stroke="black" stroke-width="2" stroke-linecap="round"/>
<path d="M670.09 403.511L701.795 401.925L705.897 404.506L666.266 406.488L670.09 403.511Z" fill="#E9EAA4"/>
<path d="M672.681 395.719L678.556 394.033L685.456 392.991L692.427 393.339L698.441 394.431L701.795 401.925L670.091 403.511L672.681 395.719Z" fill="#E9EAA4"/>
<g filter="url(#filter3_d_277_606)">
<circle cx="833.698" cy="423.5" r="22.5" fill="#FC786E"/>
<rect x="811.47" y="424" width="45" height="53" fill="#FC786E"/>
<rect x="835.077" y="415.321" width="45.0658" height="15" transform="rotate(45 835.077 415.321)" fill="#FC786E"/>
<ellipse cx="861.64" cy="452.49" rx="7.51097" ry="7.5" transform="rotate(45 861.64 452.49)" fill="#FC786E"/>
<rect x="842.354" y="427.252" width="45.0658" height="15" transform="rotate(133.114 842.354 427.252)" fill="#FC786E"/>
<ellipse cx="806.079" cy="455.024" rx="7.51097" ry="7.5" transform="rotate(133.114 806.079 455.024)" fill="#FC786E"/>
<circle cx="837.698" cy="410.5" r="2.5" fill="#FC786E"/>
<path d="M841.05 409.897L836.72 407.397" stroke="black" stroke-width="2" stroke-linecap="round"/>
<path d="M830.3 408L825.47 409.294" stroke="black" stroke-width="2" stroke-linecap="round"/>
</g>
<path fill-rule="evenodd" clip-rule="evenodd" d="M840.433 416.5C840.567 416.194 840.641 415.856 840.641 415.5C840.641 414.119 839.521 413 838.141 413C836.76 413 835.641 414.119 835.641 415.5C835.641 415.856 835.715 416.194 835.849 416.5C836.235 415.617 837.116 415 838.141 415C839.166 415 840.047 415.617 840.433 416.5Z" fill="black"/>
<path fill-rule="evenodd" clip-rule="evenodd" d="M832.433 416.5C832.567 416.194 832.641 415.856 832.641 415.5C832.641 414.119 831.521 413 830.141 413C828.76 413 827.641 414.119 827.641 415.5C827.641 415.856 827.715 416.194 827.849 416.5C828.235 415.617 829.116 415 830.141 415C831.166 415 832.047 415.617 832.433 416.5Z" fill="black"/>
<g filter="url(#filter4_d_277_606)">
<circle cx="756.868" cy="436.5" r="22.5" fill="#F5BB02"/>
<rect x="734.641" y="437" width="45" height="40" fill="#F5BB02"/>
<rect x="753.141" y="432.517" width="45.0658" height="15" transform="rotate(30 753.141 432.517)" fill="#F5BB02"/>
<ellipse cx="788.419" cy="461.545" rx="7.51097" ry="7.5" transform="rotate(30 788.419 461.545)" fill="#F5BB02"/>
<rect x="761.901" y="474.84" width="45.0658" height="15" transform="rotate(-150 761.901 474.84)" fill="#F5BB02"/>
<ellipse cx="726.623" cy="445.812" rx="7.51097" ry="7.5" transform="rotate(-150 726.623 445.812)" fill="#F5BB02"/>
<circle cx="760.868" cy="428.5" r="2.5" fill="black"/>
<circle cx="751.868" cy="428.5" r="2.5" fill="black"/>
<circle cx="760.868" cy="423.5" r="2.5" fill="#F5BB02"/>
<circle cx="761.141" cy="431.5" r="2.5" fill="#F5BB02"/>
<path d="M754.641 431.5C754.641 432.881 753.521 434 752.141 434C750.76 434 749.641 432.881 749.641 431.5C749.641 430.119 750.76 429 752.141 429C753.521 429 754.641 430.119 754.641 431.5Z" fill="#F5BB02"/>
<path d="M764.47 421L759.641 422.294" stroke="black" stroke-width="2" stroke-linecap="round"/>
<path d="M753.47 419L748.641 420.294" stroke="black" stroke-width="2" stroke-linecap="round"/>
</g>
<path d="M832.641 422.5C832.641 423.881 831.521 425 830.141 425C828.76 425 827.641 423.881 827.641 422.5C827.641 421.119 828.76 420 830.141 420C831.521 420 832.641 421.119 832.641 422.5Z" fill="black"/>
<path d="M808.631 409.779L850.524 402.416L853.821 400.257L804.795 408.874L808.631 409.779Z" fill="#FFF3C8"/>
<path d="M815.436 397.527L818.231 395.457L820.394 394.287L824.09 392.847L825.622 392.578L829.452 391.905L830.984 391.636L834.183 391.863L836.616 392.225L839.949 393.219L843.863 402.007L814.754 407.124L815.436 397.527Z" fill="#FFF3C8"/>
<ellipse cx="1.55556" cy="2.07407" rx="1.55556" ry="2.07407" transform="matrix(-0.0876886 0.996148 0.996148 0.0876886 831.842 397.441)" fill="#65BD56"/>
<rect width="3.11111" height="4.14815" transform="matrix(-0.0876886 0.996148 0.996148 0.0876886 833.908 397.623)" fill="#65BD56"/>
<ellipse cx="841.873" cy="397.748" rx="1.55556" ry="2.07407" transform="rotate(65.0306 841.873 397.748)" fill="#65BD56"/>
<rect x="841.217" y="396.338" width="3.11111" height="4.14815" transform="rotate(65.0306 841.217 396.338)" fill="#65BD56"/>
<circle cx="837.51" cy="396.682" r="1.03704" transform="rotate(-9.96935 837.51 396.682)" fill="#F8A0FA"/>
<rect x="836.488" y="396.862" width="2.07407" height="2.07407" transform="rotate(-9.96935 836.488 396.862)" fill="#F8A0FA"/>
<circle cx="839.911" cy="398.365" r="1.03704" transform="rotate(80.0306 839.911 398.365)" fill="#F8A0FA"/>
<rect x="839.732" y="397.344" width="2.07407" height="2.07407" transform="rotate(80.0306 839.732 397.344)" fill="#F8A0FA"/>
<circle cx="838.228" cy="400.768" r="1.03704" transform="rotate(170.031 838.228 400.768)" fill="#F8A0FA"/>
<rect x="839.249" y="400.588" width="2.07407" height="2.07407" transform="rotate(170.031 839.249 400.588)" fill="#F8A0FA"/>
<circle cx="835.826" cy="399.084" r="1.03704" transform="rotate(-99.9694 835.826 399.084)" fill="#F8A0FA"/>
<rect x="836.005" y="400.105" width="2.07407" height="2.07407" transform="rotate(-99.9694 836.005 400.105)" fill="#F8A0FA"/>
<circle cx="835.964" cy="397.39" r="1.03704" transform="rotate(-54.9694 835.964 397.39)" fill="#F8A0FA"/>
<rect x="835.369" y="398.239" width="2.07407" height="2.07407" transform="rotate(-54.9694 835.369 398.239)" fill="#F8A0FA"/>
<circle cx="1.03704" cy="1.03704" r="1.03704" transform="matrix(-0.818845 -0.574014 -0.574014 0.818845 840.473 396.597)" fill="#F8A0FA"/>
<circle cx="1.03704" cy="1.03704" r="1.03704" transform="matrix(-0.818845 -0.574014 -0.574014 0.818845 837.948 400.2)" fill="#F8A0FA"/>
<circle cx="1.03704" cy="1.03704" r="1.03704" transform="matrix(-0.818845 -0.574014 -0.574014 0.818845 841.012 399.661)" fill="#F8A0FA"/>
<circle cx="837.869" cy="398.725" r="1.03704" transform="rotate(-9.96935 837.869 398.725)" fill="#F1F99D"/>
<rect width="27.8871" height="2.17768" transform="matrix(0.830575 0.556906 0.599385 -0.800461 872.886 454.952)" fill="#D9D9D9"/>
<rect width="7.4889" height="2.05946" transform="matrix(1.02302 -0.0648505 0.159436 -0.965721 895.948 471.109)" fill="#8E8888"/>
<rect width="6.11855" height="2.16358" transform="matrix(0.66773 0.72836 0.717444 -0.707635 901.655 470.601)" fill="#8E8888"/>
<path d="M897.347 477.284L903.579 478.515L904.351 476.553L898.119 475.323L897.347 477.284Z" fill="#8E8888"/>
<rect width="15.5825" height="2.10716" transform="matrix(1.01891 0.0828088 0.278165 -0.942913 858.504 454.442)" fill="#CFDA50"/>
<rect width="14.8537" height="2.17765" transform="matrix(0.825129 0.564112 0.604127 -0.797262 861.449 447.123)" fill="#CFDA50"/>
<rect width="1.76501" height="10.0831" transform="matrix(0.976018 0.27968 0.417859 -0.897026 856.852 453.792)" fill="#CFDA50"/>
<rect width="7.69961" height="2.01031" transform="matrix(0.147096 0.962464 0.956332 -0.364867 895.719 470.264)" fill="#8E8888"/>
<path d="M909.119 462.97L926.517 469.382L917.962 481.122L913.601 481.819L909.21 485.328L911.141 490.064L908.868 493.045L893.693 481.47L895.967 478.489L898.241 475.508L899.377 474.018L900.514 472.527L902.788 469.547L910.147 470.612L910.717 467.618L909.119 462.97Z" fill="#FF2727"/>
<path d="M910.84 459.78L925.971 465.997L926.196 469.037L908.661 462.636L910.84 459.78Z" fill="#D9D9D9"/>
<path d="M905.709 494.08L892.702 484.159L893.272 481.164L908.446 492.739L905.709 494.08Z" fill="#D9D9D9"/>
<path fill-rule="evenodd" clip-rule="evenodd" d="M904.424 472.256L905.172 472.937C905.332 472.712 905.441 472.483 905.499 472.248C905.557 472.014 905.569 471.782 905.533 471.552C905.498 471.321 905.419 471.097 905.297 470.882C905.176 470.668 905.014 470.468 904.811 470.284C904.504 470.004 904.163 469.823 903.789 469.741C903.415 469.657 903.035 469.684 902.649 469.821C902.262 469.958 901.895 470.217 901.548 470.598C901.202 470.979 900.978 471.367 900.876 471.763C900.775 472.16 900.783 472.54 900.899 472.904C901.017 473.269 901.231 473.593 901.543 473.877C901.767 474.081 901.999 474.23 902.238 474.324C902.478 474.418 902.716 474.466 902.95 474.467C903.187 474.468 903.41 474.429 903.621 474.35C903.834 474.271 904.023 474.161 904.189 474.018L903.444 473.334C903.342 473.412 903.236 473.467 903.125 473.499C903.015 473.533 902.904 473.545 902.792 473.536C902.68 473.526 902.57 473.496 902.461 473.444C902.353 473.394 902.249 473.323 902.15 473.233C901.973 473.073 901.857 472.888 901.802 472.68C901.746 472.471 901.758 472.248 901.837 472.01C901.917 471.773 902.071 471.53 902.298 471.28C902.518 471.038 902.743 470.865 902.971 470.763C903.2 470.66 903.422 470.625 903.638 470.658C903.854 470.69 904.052 470.789 904.233 470.953C904.333 471.045 904.413 471.143 904.473 471.249C904.533 471.356 904.572 471.467 904.59 471.58C904.607 471.694 904.602 471.808 904.575 471.923C904.549 472.036 904.498 472.147 904.424 472.256ZM907.337 477.642C907.725 477.506 908.092 477.248 908.439 476.866C908.786 476.485 909.008 476.095 909.107 475.696C909.207 475.298 909.197 474.916 909.076 474.55C908.957 474.184 908.744 473.861 908.435 473.58C908.124 473.298 907.781 473.115 907.406 473.031C907.032 472.947 906.651 472.973 906.264 473.11C905.877 473.247 905.511 473.506 905.164 473.887C904.818 474.268 904.595 474.657 904.495 475.055C904.395 475.453 904.405 475.834 904.523 476.2C904.642 476.566 904.857 476.89 905.167 477.173C905.476 477.454 905.817 477.636 906.192 477.721C906.568 477.806 906.95 477.779 907.337 477.642ZM908.147 475.459C908.066 475.695 907.914 475.937 907.689 476.184C907.464 476.431 907.238 476.606 907.01 476.708C906.783 476.812 906.563 476.847 906.35 476.813C906.137 476.78 905.941 476.682 905.762 476.519C905.583 476.357 905.467 476.171 905.414 475.962C905.36 475.753 905.374 475.53 905.454 475.294C905.536 475.058 905.689 474.816 905.913 474.569C906.138 474.322 906.364 474.147 906.591 474.044C906.819 473.941 907.04 473.907 907.253 473.94C907.466 473.974 907.662 474.072 907.84 474.234C908.019 474.397 908.135 474.583 908.189 474.792C908.242 475 908.228 475.223 908.147 475.459ZM910.577 475.616L907.396 479.113L909.635 481.149L910.189 480.54L908.69 479.176L911.316 476.289L910.577 475.616ZM910.024 481.503L910.816 482.224L911.801 481.663L912.845 482.612L912.847 482.611L913.168 482.579L913.887 482.509L914.291 482.469L915.365 479.971L914.412 479.104L910.024 481.503ZM913.401 482.063L914.175 480.349L914.148 480.324L912.514 481.256L913.401 482.063Z" fill="white"/>
<rect width="7.69961" height="2.01031" transform="matrix(0.147096 0.962464 0.956332 -0.364867 895.641 470.733)" fill="#8E8888"/>
<path d="M896.641 477.961L902.873 479.192L903.645 477.231L897.413 476L896.641 477.961Z" fill="#8E8888"/>
<path d="M750.791 437.702C750.708 436.878 751.309 436.143 752.133 436.059L761.137 435.151C761.961 435.068 762.697 435.668 762.78 436.493V436.493C762.863 437.317 762.263 438.052 761.438 438.136L752.434 439.044C751.61 439.127 750.875 438.527 750.791 437.702V437.702Z" fill="black"/>
<path d="M784.095 447.617L797.647 451.382L798.682 454.536C798.743 454.723 798.748 454.925 798.695 455.115L797.969 457.727L796.399 463.379C796.37 463.483 796.325 463.581 796.265 463.67L792.992 468.529C792.872 468.709 792.812 468.922 792.823 469.138L793.058 473.766C793.093 474.447 792.449 474.963 791.792 474.78L778.604 471.116C778.072 470.968 777.761 470.417 777.908 469.885L780.868 459.233L782.417 453.658C782.459 453.505 782.538 453.364 782.646 453.247L784.432 451.313C784.651 451.076 784.742 450.748 784.676 450.432L784.095 447.617Z" fill="#AFFFE7" fill-opacity="0.6"/>
<path d="M794.847 441.478C794.881 441.611 794.801 441.748 794.667 441.782L789.315 443.164C789.181 443.198 789.044 443.118 789.01 442.984L788.131 439.577C788.096 439.444 788.176 439.307 788.31 439.273L793.663 437.891C793.796 437.857 793.933 437.937 793.967 438.071L794.847 441.478Z" fill="#3834FF"/>
<path d="M789.58 442.884L793.99 442.024L797.647 451.381L784.095 447.617L789.58 442.884Z" fill="#AFFFE7" fill-opacity="0.6"/>
<path d="M784.955 452.026L786.891 452.564L790.763 453.64L798.507 455.791L796.356 463.535L793.344 466.869L779.792 463.104L781.406 457.296L782.213 454.392L784.955 452.026Z" fill="#D9D9D9"/>
<path d="M784.095 447.617L797.647 451.382L798.682 454.536C798.743 454.723 798.748 454.925 798.695 455.115L797.969 457.727L796.399 463.379C796.37 463.483 796.325 463.581 796.265 463.67L792.992 468.529C792.872 468.709 792.812 468.922 792.823 469.138L793.058 473.766C793.093 474.447 792.449 474.963 791.792 474.78L778.604 471.116C778.072 470.968 777.761 470.417 777.908 469.885L780.868 459.233L782.417 453.658C782.459 453.505 782.538 453.364 782.646 453.247L784.432 451.313C784.651 451.076 784.742 450.748 784.676 450.432L784.095 447.617Z" fill="#AFFFE7" fill-opacity="0.6"/>
<path d="M794.847 441.478C794.881 441.611 794.801 441.748 794.667 441.782L789.315 443.164C789.181 443.198 789.044 443.118 789.01 442.984L788.131 439.577C788.096 439.444 788.176 439.307 788.31 439.273L793.663 437.891C793.796 437.857 793.933 437.937 793.967 438.071L794.847 441.478Z" fill="#3834FF"/>
<path d="M789.58 442.884L793.99 442.024L797.647 451.381L784.095 447.617L789.58 442.884Z" fill="#AFFFE7" fill-opacity="0.6"/>
<path d="M784.955 452.026L786.891 452.564L790.763 453.64L798.507 455.791L796.356 463.535L793.344 466.869L779.792 463.104L781.406 457.296L782.213 454.392L784.955 452.026Z" fill="#D9D9D9"/>
<path fill-rule="evenodd" clip-rule="evenodd" d="M780.739 460.695L781.603 460.935C781.787 460.986 781.95 460.999 782.091 460.975C782.233 460.951 782.35 460.897 782.442 460.813C782.535 460.729 782.6 460.622 782.636 460.492C782.669 460.371 782.673 460.26 782.646 460.159C782.619 460.057 782.571 459.97 782.503 459.899C782.435 459.827 782.355 459.777 782.262 459.747L782.269 459.723C782.36 459.727 782.444 459.716 782.523 459.689C782.603 459.661 782.672 459.617 782.731 459.556C782.789 459.494 782.832 459.415 782.858 459.319C782.893 459.196 782.892 459.079 782.858 458.968C782.824 458.856 782.754 458.757 782.648 458.67C782.542 458.583 782.399 458.514 782.219 458.464L781.42 458.242L780.739 460.695ZM782.167 455.554L782.178 456.943L782.683 457.083L783.595 455.609L783.614 455.615L783.636 457.348L784.141 457.488L785.524 455.231L784.958 455.073L784.077 456.668L784.056 456.662L784.083 454.831L783.598 454.696L782.677 456.275L782.657 456.27L782.724 454.453L782.491 454.388L782.167 455.554ZM785.284 457.717C785.398 457.834 785.548 457.918 785.734 457.97C785.92 458.021 786.092 458.026 786.248 457.985C786.406 457.943 786.542 457.861 786.655 457.739C786.768 457.617 786.851 457.461 786.903 457.273C786.956 457.083 786.965 456.906 786.931 456.744C786.897 456.581 786.824 456.441 786.71 456.324C786.597 456.207 786.448 456.122 786.262 456.07C786.076 456.019 785.904 456.014 785.746 456.056C785.589 456.098 785.454 456.18 785.341 456.302C785.228 456.424 785.145 456.58 785.092 456.77C785.04 456.958 785.031 457.134 785.064 457.297C785.098 457.46 785.172 457.6 785.284 457.717ZM786.078 457.562C786.008 457.594 785.931 457.599 785.846 457.575C785.761 457.551 785.696 457.508 785.651 457.443C785.607 457.379 785.582 457.3 785.575 457.208C785.57 457.117 785.582 457.017 785.612 456.91C785.642 456.803 785.682 456.712 785.734 456.636C785.787 456.56 785.849 456.506 785.92 456.473C785.992 456.441 786.071 456.437 786.156 456.46C786.241 456.484 786.305 456.528 786.348 456.592C786.391 456.657 786.415 456.735 786.421 456.827C786.427 456.919 786.415 457.018 786.385 457.125C786.356 457.232 786.314 457.323 786.262 457.399C786.21 457.475 786.148 457.529 786.078 457.562ZM787.492 456.438L786.981 458.277L787.491 458.419L787.78 457.378C787.801 457.303 787.836 457.242 787.886 457.194C787.936 457.146 787.995 457.114 788.062 457.098C788.13 457.082 788.202 457.084 788.277 457.105C788.312 457.115 788.35 457.128 788.391 457.146C788.432 457.163 788.463 457.179 788.485 457.192L788.611 456.74C788.59 456.728 788.565 456.716 788.536 456.705C788.508 456.694 788.481 456.684 788.455 456.677C788.352 456.649 788.253 456.653 788.157 456.69C788.062 456.726 787.982 456.797 787.917 456.902L787.898 456.896L787.987 456.575L787.492 456.438ZM789.836 457.502L789.943 457.119L789.597 457.023L789.719 456.582L789.209 456.44L789.086 456.881L788.835 456.811L788.728 457.194L788.98 457.264L788.714 458.222C788.68 458.342 788.677 458.449 788.706 458.543C788.735 458.636 788.79 458.714 788.872 458.777C788.954 458.84 789.057 458.886 789.182 458.916C789.248 458.932 789.307 458.941 789.356 458.942C789.405 458.945 789.444 458.946 789.471 458.945L789.497 458.543C789.483 458.542 789.464 458.54 789.439 458.538C789.414 458.536 789.389 458.531 789.365 458.524C789.331 458.515 789.302 458.501 789.278 458.484C789.256 458.466 789.241 458.443 789.234 458.413C789.226 458.383 789.229 458.344 789.243 458.297L789.49 457.406L789.836 457.502ZM790.116 459.063C790.231 459.178 790.383 459.261 790.572 459.314C790.724 459.356 790.864 459.37 790.993 459.356C791.123 459.341 791.236 459.302 791.333 459.239C791.43 459.175 791.507 459.089 791.562 458.983L791.099 458.82C791.069 458.862 791.032 458.894 790.99 458.916C790.948 458.939 790.901 458.952 790.849 458.955C790.797 458.958 790.743 458.951 790.687 458.935C790.601 458.912 790.532 458.873 790.48 458.82C790.428 458.767 790.394 458.702 790.378 458.626C790.363 458.551 790.368 458.468 790.393 458.377L790.393 458.375L791.646 458.723L791.685 458.583C791.728 458.427 791.744 458.284 791.733 458.155C791.722 458.026 791.687 457.911 791.63 457.812C791.573 457.713 791.497 457.629 791.402 457.562C791.309 457.494 791.201 457.443 791.08 457.409C790.899 457.359 790.731 457.355 790.575 457.398C790.419 457.44 790.285 457.523 790.172 457.646C790.059 457.768 789.976 457.924 789.923 458.113C789.869 458.307 789.859 458.485 789.893 458.648C789.927 458.81 790.002 458.948 790.116 459.063ZM790.482 458.059C790.503 457.994 790.537 457.939 790.583 457.893C790.633 457.842 790.693 457.807 790.761 457.789C790.831 457.769 790.905 457.771 790.982 457.792C791.057 457.813 791.117 457.847 791.164 457.895C791.212 457.943 791.244 458 791.26 458.065C791.276 458.131 791.274 458.2 791.254 458.274L790.482 458.059ZM792.271 457.766L791.76 459.605L792.27 459.747L792.559 458.706C792.58 458.631 792.615 458.569 792.664 458.521C792.715 458.473 792.773 458.441 792.841 458.426C792.909 458.409 792.98 458.412 793.055 458.432C793.091 458.442 793.129 458.456 793.169 458.473C793.21 458.49 793.241 458.506 793.263 458.52L793.389 458.067C793.368 458.055 793.344 458.044 793.315 458.032C793.286 458.021 793.259 458.012 793.234 458.005C793.131 457.976 793.031 457.98 792.936 458.017C792.841 458.054 792.761 458.124 792.695 458.229L792.676 458.224L792.765 457.903L792.271 457.766ZM793.651 458.149L793.14 459.988L793.65 460.13L793.939 459.089C793.96 459.014 793.995 458.953 794.044 458.905C794.095 458.857 794.153 458.825 794.22 458.809C794.289 458.793 794.36 458.795 794.435 458.816C794.47 458.826 794.508 458.839 794.549 458.856C794.59 458.874 794.621 458.889 794.643 458.903L794.769 458.451C794.748 458.439 794.723 458.427 794.695 458.416C794.666 458.404 794.639 458.395 794.614 458.388C794.511 458.359 794.411 458.364 794.316 458.401C794.221 458.437 794.14 458.508 794.075 458.613L794.056 458.607L794.145 458.286L793.651 458.149ZM794.805 460.366C794.921 460.481 795.073 460.564 795.262 460.617C795.414 460.659 795.554 460.673 795.683 460.659C795.812 460.644 795.925 460.605 796.022 460.541C796.12 460.477 796.196 460.392 796.252 460.285L795.789 460.123C795.758 460.165 795.722 460.197 795.679 460.219C795.637 460.242 795.59 460.255 795.539 460.258C795.487 460.26 795.433 460.254 795.376 460.238C795.291 460.214 795.222 460.176 795.17 460.123C795.117 460.07 795.083 460.005 795.067 459.929C795.052 459.854 795.057 459.77 795.083 459.679L795.083 459.678L796.336 460.026L796.374 459.886C796.418 459.73 796.434 459.587 796.422 459.458C796.411 459.329 796.377 459.214 796.319 459.115C796.262 459.016 796.187 458.932 796.092 458.865C795.998 458.796 795.891 458.745 795.769 458.712C795.589 458.662 795.421 458.658 795.264 458.7C795.109 458.743 794.974 458.826 794.861 458.948C794.748 459.071 794.665 459.227 794.613 459.416C794.559 459.61 794.549 459.788 794.583 459.951C794.617 460.112 794.691 460.251 794.805 460.366ZM795.171 459.362C795.193 459.297 795.226 459.241 795.272 459.195C795.323 459.145 795.382 459.11 795.451 459.092C795.521 459.072 795.595 459.073 795.672 459.095C795.746 459.116 795.807 459.15 795.854 459.198C795.901 459.246 795.933 459.303 795.95 459.368C795.966 459.434 795.964 459.503 795.943 459.577L795.171 459.362ZM781.614 460.481L781.192 460.364L781.373 459.712L781.807 459.833C781.89 459.856 781.958 459.891 782.009 459.937C782.062 459.983 782.097 460.037 782.116 460.098C782.134 460.159 782.134 460.224 782.115 460.291C782.089 460.384 782.035 460.449 781.953 460.486C781.872 460.523 781.759 460.521 781.614 460.481ZM781.855 459.468L781.47 459.362L781.639 458.754L782.033 458.864C782.148 458.896 782.229 458.948 782.276 459.019C782.324 459.091 782.336 459.171 782.311 459.26C782.293 459.324 782.261 459.375 782.216 459.413C782.171 459.45 782.117 459.474 782.054 459.484C781.992 459.493 781.926 459.488 781.855 459.468ZM783.147 461.275C783.26 461.391 783.41 461.476 783.596 461.527C783.782 461.579 783.954 461.584 784.111 461.542C784.269 461.5 784.404 461.418 784.517 461.297C784.63 461.174 784.713 461.019 784.765 460.83C784.818 460.64 784.827 460.464 784.793 460.302C784.76 460.138 784.686 459.998 784.572 459.881C784.459 459.764 784.31 459.68 784.124 459.628C783.938 459.576 783.766 459.572 783.608 459.614C783.451 459.655 783.316 459.737 783.203 459.86C783.09 459.981 783.007 460.137 782.955 460.327C782.902 460.516 782.893 460.692 782.927 460.855C782.961 461.017 783.034 461.157 783.147 461.275ZM783.941 461.12C783.871 461.152 783.793 461.156 783.709 461.133C783.623 461.109 783.558 461.065 783.513 461.001C783.469 460.936 783.444 460.858 783.438 460.766C783.432 460.674 783.444 460.575 783.474 460.468C783.504 460.361 783.545 460.269 783.597 460.194C783.65 460.118 783.711 460.064 783.782 460.031C783.854 459.999 783.933 459.994 784.018 460.018C784.103 460.041 784.167 460.085 784.21 460.15C784.253 460.214 784.277 460.292 784.283 460.384C784.289 460.476 784.277 460.576 784.248 460.683C784.218 460.79 784.177 460.881 784.124 460.957C784.072 461.032 784.011 461.087 783.941 461.12ZM786.226 460.651L786.333 460.267L785.987 460.171L786.109 459.731L785.599 459.589L785.477 460.03L785.225 459.96L785.119 460.343L785.37 460.413L785.104 461.371C785.07 461.491 785.067 461.598 785.096 461.691C785.125 461.784 785.181 461.862 785.262 461.926C785.344 461.989 785.447 462.035 785.572 462.064C785.639 462.08 785.697 462.089 785.746 462.091C785.795 462.093 785.834 462.094 785.862 462.093L785.887 461.691C785.873 461.69 785.854 461.689 785.829 461.687C785.804 461.684 785.779 461.68 785.755 461.673C785.721 461.663 785.692 461.65 785.669 461.632C785.646 461.615 785.631 461.591 785.624 461.562C785.617 461.531 785.62 461.493 785.633 461.445L785.88 460.554L786.226 460.651ZM786.506 462.212C786.621 462.326 786.773 462.41 786.963 462.462C787.114 462.505 787.255 462.519 787.383 462.504C787.513 462.49 787.626 462.451 787.723 462.387C787.82 462.323 787.897 462.238 787.953 462.131L787.489 461.969C787.459 462.01 787.423 462.042 787.38 462.065C787.338 462.088 787.291 462.1 787.239 462.103C787.188 462.106 787.134 462.1 787.077 462.084C786.991 462.06 786.923 462.022 786.87 461.969C786.818 461.915 786.784 461.851 786.768 461.775C786.753 461.699 786.758 461.616 786.783 461.525L786.784 461.524L788.036 461.872L788.075 461.732C788.119 461.575 788.135 461.433 788.123 461.304C788.112 461.174 788.077 461.06 788.02 460.961C787.963 460.861 787.887 460.778 787.793 460.71C787.699 460.642 787.591 460.591 787.47 460.558C787.29 460.507 787.121 460.504 786.965 460.546C786.809 460.589 786.675 460.672 786.562 460.794C786.449 460.917 786.366 461.073 786.313 461.262C786.259 461.456 786.249 461.634 786.283 461.796C786.318 461.958 786.392 462.097 786.506 462.212ZM786.872 461.208C786.893 461.143 786.927 461.087 786.973 461.041C787.023 460.991 787.083 460.956 787.152 460.937C787.221 460.918 787.295 460.919 787.373 460.941C787.447 460.961 787.507 460.996 787.554 461.044C787.602 461.092 787.634 461.148 787.65 461.214C787.666 461.279 787.664 461.349 787.644 461.422L786.872 461.208ZM788.66 462.895L789.341 460.443L788.831 460.301L788.15 462.754L788.66 462.895ZM789.579 463.151L790.26 460.698L789.75 460.556L789.069 463.009L789.579 463.151ZM790.359 463.282C790.474 463.397 790.627 463.48 790.816 463.533C790.967 463.575 791.108 463.589 791.236 463.575C791.366 463.56 791.479 463.521 791.576 463.458C791.674 463.394 791.75 463.308 791.806 463.202L791.342 463.039C791.312 463.081 791.276 463.113 791.233 463.136C791.191 463.158 791.144 463.171 791.092 463.174C791.041 463.177 790.987 463.17 790.93 463.154C790.845 463.131 790.776 463.092 790.723 463.039C790.671 462.986 790.637 462.921 790.621 462.845C790.606 462.77 790.611 462.687 790.636 462.596L790.637 462.594L791.889 462.942L791.928 462.802C791.972 462.646 791.988 462.503 791.976 462.374C791.965 462.245 791.93 462.13 791.873 462.031C791.816 461.932 791.74 461.848 791.646 461.781C791.552 461.713 791.444 461.662 791.323 461.628C791.143 461.578 790.974 461.574 790.818 461.617C790.662 461.659 790.528 461.742 790.415 461.865C790.302 461.987 790.219 462.143 790.166 462.332C790.113 462.526 790.103 462.704 790.137 462.867C790.171 463.029 790.245 463.167 790.359 463.282ZM790.725 462.278C790.746 462.213 790.78 462.158 790.826 462.112C790.876 462.061 790.936 462.027 791.005 462.008C791.075 461.989 791.148 461.99 791.226 462.011C791.3 462.032 791.36 462.066 791.407 462.114C791.455 462.162 791.487 462.219 791.503 462.284C791.519 462.35 791.517 462.419 791.497 462.493L790.725 462.278ZM791.592 460.886L791.187 461.361L791.548 461.461L792.064 461.017L791.592 460.886Z" fill="black"/>
<g filter="url(#filter5_i_277_606)">
<path d="M653.693 429.56L659.447 431.262L664.971 435.503L673.662 453.716L671.588 462.488L665.571 466.965L660.263 469.045L653.943 469.261L645.792 466.85L641.031 461.792L640.619 454.371L643.597 444.302L653.693 429.56Z" fill="#434343"/>
</g>
<path d="M653.86 423.077L659.4 422.577L660.9 423.077L659.9 425.577L658.102 427.559L655.102 426.559L652.789 425.577L653.86 424.391L652.789 423.077L653.102 421.391L653.86 423.077Z" fill="#6D6D6D"/>
<path d="M659.602 421.059L657.102 428.059L655.466 426.687L652.602 421.059L656.102 421.559L659.602 421.059Z" fill="#515151"/>
<path d="M659.602 421.559L661.352 422.309L661.352 422.891L657.766 425.108L655.113 424.863L654.857 425.961L654.602 427.059L652.789 427.391L653.083 426.058L654.562 423.686L659.602 421.559Z" fill="#565656"/>
<path d="M659.602 421.559L661.352 422.309L661.352 422.891L657.766 425.108L655.113 424.863L654.857 425.961L654.602 427.059L652.789 427.391L653.083 426.058L654.562 423.686L659.602 421.559Z" fill="#565656"/>
<path d="M653.289 421.891L656.722 422.736L656.726 425.4L659.602 426.059L657.789 427.391L655.606 426.059L653.289 421.891Z" fill="#5B5B5B"/>
<path d="M770.911 418.432C770.965 417.859 767.094 417.386 761.57 416.711C756.047 416.037 750.994 415.42 750.908 415.989C751.583 410.466 756.607 406.535 762.131 407.209C767.655 407.884 771.586 412.908 770.911 418.432Z" fill="#6D60FF"/>
<rect x="742.892" y="412.919" width="29" height="2" rx="1" transform="rotate(6.96251 742.892 412.919)" fill="#6D60FF"/>
<line x1="762.468" y1="405.235" x2="762.105" y2="408.213" stroke="black"/>
<ellipse cx="766.439" cy="405.72" rx="3.5" ry="1" transform="rotate(6.96251 766.439 405.72)" fill="#FF4F4F"/>
<ellipse cx="758.498" cy="404.75" rx="3.5" ry="1" transform="rotate(6.96251 758.498 404.75)" fill="#FF4F4F"/>
<ellipse cx="762.529" cy="404.739" rx="1.5" ry="0.5" transform="rotate(6.96251 762.529 404.739)" fill="black"/>
<path d="M762.165 407.717L765.185 415.137L757.448 414.193L762.165 407.717Z" fill="#F5BB02"/>
<path d="M762.165 407.717L758.369 414.305L752.352 413.57L753.061 412.146L754.236 410.778L755.906 409.471L757.02 408.6L759.127 407.849L762.165 407.717Z" fill="#FF4F4F"/>
<path d="M762.134 407.713L764.233 415.021L770.25 415.756L769.936 414.206L769.094 412.593L767.787 410.922L766.946 409.812L765.082 408.577L762.134 407.713Z" fill="#6AAF88"/>
<g filter="url(#filter6_i_277_606)">
<ellipse cx="488" cy="231.529" rx="22.8" ry="18.5294" fill="#F8F8F8"/>
<ellipse cx="510.8" cy="244.5" rx="22.8" ry="18.5294" fill="#F8F8F8"/>
<ellipse cx="522.2" cy="257.471" rx="22.8" ry="18.5294" fill="#F8F8F8"/>
<ellipse cx="488" cy="257.471" rx="22.8" ry="18.5294" fill="#F8F8F8"/>
<ellipse cx="506.24" cy="257.471" rx="22.8" ry="18.5294" fill="#F8F8F8"/>
<ellipse cx="469.76" cy="257.471" rx="22.8" ry="18.5294" fill="#F8F8F8"/>
<ellipse cx="453.8" cy="257.471" rx="22.8" ry="18.5294" fill="#F8F8F8"/>
<ellipse cx="465.2" cy="244.5" rx="22.8" ry="18.5294" fill="#F8F8F8"/>
</g>
<path d="M529.676 251.968L535 249" stroke="black" stroke-linecap="round"/>
<path d="M535 249L537.89 250.804" stroke="black" stroke-linecap="round"/>
<path d="M545 251L540 249" stroke="black" stroke-linecap="round"/>
<path d="M540 249L538 251" stroke="black" stroke-linecap="round"/>
<path d="M521.365 281.468L516.041 278.5" stroke="black" stroke-linecap="round"/>
<path d="M516.041 278.5L513.151 280.304" stroke="black" stroke-linecap="round"/>
<path d="M506.041 280.5L511.041 278.5" stroke="black" stroke-linecap="round"/>
<path d="M511.041 278.5L513.041 280.5" stroke="black" stroke-linecap="round"/>
<path d="M568.319 261.468L573.644 258.5" stroke="black" stroke-linecap="round"/>
<path d="M573.644 258.5L576.534 260.304" stroke="black" stroke-linecap="round"/>
<path d="M583.644 260.5L578.644 258.5" stroke="black" stroke-linecap="round"/>
<path d="M578.644 258.5L576.644 260.5" stroke="black" stroke-linecap="round"/>
<g filter="url(#filter7_i_277_606)">
<ellipse cx="920.905" cy="238.647" rx="15.5619" ry="12.6471" fill="#F8F8F8"/>
<ellipse cx="936.467" cy="247.5" rx="15.5619" ry="12.6471" fill="#F8F8F8"/>
<ellipse cx="944.248" cy="256.353" rx="15.5619" ry="12.6471" fill="#F8F8F8"/>
<ellipse cx="920.905" cy="256.353" rx="15.5619" ry="12.6471" fill="#F8F8F8"/>
<ellipse cx="933.354" cy="256.353" rx="15.5619" ry="12.6471" fill="#F8F8F8"/>
<ellipse cx="908.455" cy="256.353" rx="15.5619" ry="12.6471" fill="#F8F8F8"/>
<ellipse cx="897.562" cy="256.353" rx="15.5619" ry="12.6471" fill="#F8F8F8"/>
<ellipse cx="905.343" cy="247.5" rx="15.5619" ry="12.6471" fill="#F8F8F8"/>
</g>
<g filter="url(#filter8_i_277_606)">
<ellipse cx="357.905" cy="110.647" rx="15.5619" ry="12.6471" fill="#F8F8F8"/>
<ellipse cx="373.467" cy="119.5" rx="15.5619" ry="12.6471" fill="#F8F8F8"/>
<ellipse cx="381.248" cy="128.353" rx="15.5619" ry="12.6471" fill="#F8F8F8"/>
<ellipse cx="357.905" cy="128.353" rx="15.5619" ry="12.6471" fill="#F8F8F8"/>
<ellipse cx="370.354" cy="128.353" rx="15.5619" ry="12.6471" fill="#F8F8F8"/>
<ellipse cx="345.455" cy="128.353" rx="15.5619" ry="12.6471" fill="#F8F8F8"/>
<ellipse cx="334.562" cy="128.353" rx="15.5619" ry="12.6471" fill="#F8F8F8"/>
<ellipse cx="342.343" cy="119.5" rx="15.5619" ry="12.6471" fill="#F8F8F8"/>
</g>
<defs>
<filter id="filter0_i_277_606" x="607" y="94" width="116" height="67" filterUnits="userSpaceOnUse" color-interpolation-filters="sRGB">
<feFlood flood-opacity="0" result="BackgroundImageFix"/>
<feBlend mode="normal" in="SourceGraphic" in2="BackgroundImageFix" result="shape"/>
<feColorMatrix in="SourceAlpha" type="matrix" values="0 0 0 0 0 0 0 0 0 0 0 0 0 0 0 0 0 0 127 0" result="hardAlpha"/>
<feOffset dx="2" dy="-4"/>
<feGaussianBlur stdDeviation="2.5"/>
<feComposite in2="hardAlpha" operator="arithmetic" k2="-1" k3="1"/>
<feColorMatrix type="matrix" values="0 0 0 0 0 0 0 0 0 0 0 0 0 0 0 0 0 0 0.25 0"/>
<feBlend mode="normal" in2="shape" result="effect1_innerShadow_277_606"/>
</filter>
<filter id="filter1_d_277_606" x="862.141" y="416.5" width="59" height="23" filterUnits="userSpaceOnUse" color-interpolation-filters="sRGB">
<feFlood flood-opacity="0" result="BackgroundImageFix"/>
<feColorMatrix in="SourceAlpha" type="matrix" values="0 0 0 0 0 0 0 0 0 0 0 0 0 0 0 0 0 0 127 0" result="hardAlpha"/>
<feOffset dx="-0.5" dy="0.5"/>
<feGaussianBlur stdDeviation="0.5"/>
<feComposite in2="hardAlpha" operator="out"/>
<feColorMatrix type="matrix" values="0 0 0 0 0 0 0 0 0 0 0 0 0 0 0 0 0 0 0.25 0"/>
<feBlend mode="normal" in2="BackgroundImageFix" result="effect1_dropShadow_277_606"/>
<feBlend mode="normal" in="SourceGraphic" in2="effect1_dropShadow_277_606" result="shape"/>
</filter>
<filter id="filter2_d_277_606" x="645.114" y="400" width="86.0955" height="85" filterUnits="userSpaceOnUse" color-interpolation-filters="sRGB">
<feFlood flood-opacity="0" result="BackgroundImageFix"/>
<feColorMatrix in="SourceAlpha" type="matrix" values="0 0 0 0 0 0 0 0 0 0 0 0 0 0 0 0 0 0 127 0" result="hardAlpha"/>
<feOffset dy="4"/>
<feGaussianBlur stdDeviation="2"/>
<feComposite in2="hardAlpha" operator="out"/>
<feColorMatrix type="matrix" values="0 0 0 0 0 0 0 0 0 0 0 0 0 0 0 0 0 0 0.25 0"/>
<feBlend mode="normal" in2="BackgroundImageFix" result="effect1_dropShadow_277_606"/>
<feBlend mode="normal" in="SourceGraphic" in2="effect1_dropShadow_277_606" result="shape"/>
</filter>
<filter id="filter3_d_277_606" x="794.573" y="401" width="78.572" height="84" filterUnits="userSpaceOnUse" color-interpolation-filters="sRGB">
<feFlood flood-opacity="0" result="BackgroundImageFix"/>
<feColorMatrix in="SourceAlpha" type="matrix" values="0 0 0 0 0 0 0 0 0 0 0 0 0 0 0 0 0 0 127 0" result="hardAlpha"/>
<feOffset dy="4"/>
<feGaussianBlur stdDeviation="2"/>
<feComposite in2="hardAlpha" operator="out"/>
<feColorMatrix type="matrix" values="0 0 0 0 0 0 0 0 0 0 0 0 0 0 0 0 0 0 0.25 0"/>
<feBlend mode="normal" in2="BackgroundImageFix" result="effect1_dropShadow_277_606"/>
<feBlend mode="normal" in="SourceGraphic" in2="effect1_dropShadow_277_606" result="shape"/>
</filter>
<filter id="filter4_d_277_606" x="715.114" y="414" width="84.8145" height="71" filterUnits="userSpaceOnUse" color-interpolation-filters="sRGB">
<feFlood flood-opacity="0" result="BackgroundImageFix"/>
<feColorMatrix in="SourceAlpha" type="matrix" values="0 0 0 0 0 0 0 0 0 0 0 0 0 0 0 0 0 0 127 0" result="hardAlpha"/>
<feOffset dy="4"/>
<feGaussianBlur stdDeviation="2"/>
<feComposite in2="hardAlpha" operator="out"/>
<feColorMatrix type="matrix" values="0 0 0 0 0 0 0 0 0 0 0 0 0 0 0 0 0 0 0.25 0"/>
<feBlend mode="normal" in2="BackgroundImageFix" result="effect1_dropShadow_277_606"/>
<feBlend mode="normal" in="SourceGraphic" in2="effect1_dropShadow_277_606" result="shape"/>
</filter>
<filter id="filter5_i_277_606" x="640.619" y="428.56" width="34.0427" height="40.7012" filterUnits="userSpaceOnUse" color-interpolation-filters="sRGB">
<feFlood flood-opacity="0" result="BackgroundImageFix"/>
<feBlend mode="normal" in="SourceGraphic" in2="BackgroundImageFix" result="shape"/>
<feColorMatrix in="SourceAlpha" type="matrix" values="0 0 0 0 0 0 0 0 0 0 0 0 0 0 0 0 0 0 127 0" result="hardAlpha"/>
<feOffset dx="3" dy="-3"/>
<feGaussianBlur stdDeviation="0.5"/>
<feComposite in2="hardAlpha" operator="arithmetic" k2="-1" k3="1"/>
<feColorMatrix type="matrix" values="0 0 0 0 0 0 0 0 0 0 0 0 0 0 0 0 0 0 0.25 0"/>
<feBlend mode="normal" in2="shape" result="effect1_innerShadow_277_606"/>
</filter>
<filter id="filter6_i_277_606" x="431" y="209" width="116" height="67" filterUnits="userSpaceOnUse" color-interpolation-filters="sRGB">
<feFlood flood-opacity="0" result="BackgroundImageFix"/>
<feBlend mode="normal" in="SourceGraphic" in2="BackgroundImageFix" result="shape"/>
<feColorMatrix in="SourceAlpha" type="matrix" values="0 0 0 0 0 0 0 0 0 0 0 0 0 0 0 0 0 0 127 0" result="hardAlpha"/>
<feOffset dx="2" dy="-4"/>
<feGaussianBlur stdDeviation="2.5"/>
<feComposite in2="hardAlpha" operator="arithmetic" k2="-1" k3="1"/>
<feColorMatrix type="matrix" values="0 0 0 0 0 0 0 0 0 0 0 0 0 0 0 0 0 0 0.25 0"/>
<feBlend mode="normal" in2="shape" result="effect1_innerShadow_277_606"/>
</filter>
<filter id="filter7_i_277_606" x="882" y="223" width="78.8096" height="46" filterUnits="userSpaceOnUse" color-interpolation-filters="sRGB">
<feFlood flood-opacity="0" result="BackgroundImageFix"/>
<feBlend mode="normal" in="SourceGraphic" in2="BackgroundImageFix" result="shape"/>
<feColorMatrix in="SourceAlpha" type="matrix" values="0 0 0 0 0 0 0 0 0 0 0 0 0 0 0 0 0 0 127 0" result="hardAlpha"/>
<feOffset dx="1" dy="-4"/>
<feGaussianBlur stdDeviation="1.5"/>
<feComposite in2="hardAlpha" operator="arithmetic" k2="-1" k3="1"/>
<feColorMatrix type="matrix" values="0 0 0 0 0 0 0 0 0 0 0 0 0 0 0 0 0 0 0.25 0"/>
<feBlend mode="normal" in2="shape" result="effect1_innerShadow_277_606"/>
</filter>
<filter id="filter8_i_277_606" x="319" y="98" width="78.8096" height="43" filterUnits="userSpaceOnUse" color-interpolation-filters="sRGB">
<feFlood flood-opacity="0" result="BackgroundImageFix"/>
<feBlend mode="normal" in="SourceGraphic" in2="BackgroundImageFix" result="shape"/>
<feColorMatrix in="SourceAlpha" type="matrix" values="0 0 0 0 0 0 0 0 0 0 0 0 0 0 0 0 0 0 127 0" result="hardAlpha"/>
<feOffset dx="1"/>
<feGaussianBlur stdDeviation="2"/>
<feComposite in2="hardAlpha" operator="arithmetic" k2="-1" k3="1"/>
<feColorMatrix type="matrix" values="0 0 0 0 0 0 0 0 0 0 0 0 0 0 0 0 0 0 0.25 0"/>
<feBlend mode="normal" in2="shape" result="effect1_innerShadow_277_606"/>
</filter>
<linearGradient id="paint0_linear_277_606" x1="571.2" y1="129.741" x2="690.798" y2="-94.2067" gradientUnits="userSpaceOnUse">
<stop stop-color="#06B7C2"/>
<stop offset="1" stop-color="#FEFFDD"/>
</linearGradient>
</defs>
</svg>
