<svg id="eyRGtOXSJK61" xmlns="http://www.w3.org/2000/svg" xmlns:xlink="http://www.w3.org/1999/xlink" viewBox="0 0 16 5" shape-rendering="geometricPrecision" text-rendering="geometricPrecision"><path d="M0,2.5C0,1.11929,1.11929,0,2.5,0s2.5,1.11929,2.5,2.5c0,.5628-.18597,1.08217-.49982,1.5C4.04408,3.39278,3.31791,3,2.5,3s-1.54408.39278-2.00018,1C0.18598,3.58217,0,3.0628,0,2.5Z" fill="#2f3e46" stroke-width="0"/><path d="M11,2.5C11,1.11929,12.11929,0,13.5,0s2.5,1.11929,2.5,2.5c0,.5628-.18597,1.08217-.49982,1.5-.4561-.60722-1.18227-1-2.00018-1s-1.54408.39278-2.00018,1C11.18598,3.58217,11,3.0628,11,2.5Z" fill="#2f3e46" stroke-width="0"/></svg>
