<svg id="eZCuxXYUtHf1" xmlns="http://www.w3.org/2000/svg" xmlns:xlink="http://www.w3.org/1999/xlink" viewBox="0 0 16 5" shape-rendering="geometricPrecision" text-rendering="geometricPrecision"><path d="M11.00001,2.5c0-1.38071,1.11929-2.5,2.5-2.5s2.5,1.11929,2.5,2.5c0,.373-.08169.72692-.22815,1.04485-.39568-.85893-1.26414-1.45515-2.27185-1.45515s-1.87616.59622-2.27185,1.45515C11.0817,3.22692,11.00001,2.873,11.00001,2.5Z" transform="translate(-.00001 0.727575)" fill="#2f3e46" stroke-width="0"/><path d="M0,2.5C0,1.11929,1.11929,0,2.5,0s2.5,1.11929,2.5,2.5c0,.373-.08169.72692-.22815,1.04485C4.37617,2.68592,3.50771,2.0897,2.5,2.0897s-1.87616.59622-2.27185,1.45515C0.08169,3.22692,0,2.873,0,2.5Z" transform="translate(0 0.727575)" fill="#2f3e46" stroke-width="0"/></svg>
