<svg width="320" height="496" viewBox="0 0 320 496" fill="none" xmlns="http://www.w3.org/2000/svg">
<rect width="320" height="471" fill="#2F3E46"/>
<path d="M0 0H320V432H0V0Z" fill="url(#paint0_linear_277_605)"/>
<path d="M0 430.661L78.2796 426.461L157.133 422.261L255.771 430.661H287.885H303.943L320 424.661V474.261H0V430.661Z" fill="#6AAF88"/>
<g filter="url(#filter0_d_277_605)">
<rect x="252.641" y="414" width="2" height="21" fill="#966927"/>
<rect x="250.641" y="421" width="4" height="14" fill="#A57225"/>
<rect x="303.641" y="414" width="2" height="21" fill="#966927"/>
<rect x="303.641" y="426" width="2" height="49" transform="rotate(90 303.641 426)" fill="#A57225"/>
<rect x="303.641" y="423" width="2" height="49" transform="rotate(90 303.641 423)" fill="#896022"/>
<rect x="303.641" y="414" width="2" height="49" transform="rotate(90 303.641 414)" fill="#896022"/>
<rect x="303.641" y="417" width="2" height="49" transform="rotate(90 303.641 417)" fill="#896022"/>
<rect x="303.641" y="420" width="2" height="49" transform="rotate(90 303.641 420)" fill="#896022"/>
<rect x="303.641" y="421" width="4" height="14" fill="#A57225"/>
</g>
<path d="M191 395H183V412.5L183.5 417V421.5L183 425.625V427.812L182.5 430H191.5L191 427.812L190.5 425.5V423.5L191 418V412.5V395Z" fill="#533913"/>
<circle cx="10" cy="10" r="10" transform="matrix(-1 0 0 1 197 383)" fill="#45A56E"/>
<circle cx="10" cy="10" r="10" transform="matrix(-1 0 0 1 187 390)" fill="#45A56E"/>
<circle cx="10" cy="10" r="10" transform="matrix(-1 0 0 1 182 397)" fill="#45A56E"/>
<circle cx="10" cy="10" r="10" transform="matrix(-1 0 0 1 197 397)" fill="#45A56E"/>
<circle cx="10" cy="10" r="10" transform="matrix(-1 0 0 1 189 397)" fill="#45A56E"/>
<circle cx="10" cy="10" r="10" transform="matrix(-1 0 0 1 205 397)" fill="#45A56E"/>
<circle cx="10" cy="10" r="10" transform="matrix(-1 0 0 1 212 397)" fill="#45A56E"/>
<circle cx="10" cy="10" r="10" transform="matrix(-1 0 0 1 207 390)" fill="#45A56E"/>
<path d="M122.04 400.12H115.96V413.42L116.34 416.84V420.26L115.96 423.395V425.058L115.58 426.72H122.42L122.04 425.058L121.66 423.3V421.78L122.04 417.6V413.42V400.12Z" fill="#533913"/>
<circle cx="7.6" cy="7.6" r="7.6" transform="matrix(-1 0 0 1 126.6 391)" fill="#45A56E"/>
<circle cx="7.6" cy="7.6" r="7.6" transform="matrix(-1 0 0 1 119 396.32)" fill="#45A56E"/>
<circle cx="7.6" cy="7.6" r="7.6" transform="matrix(-1 0 0 1 115.2 401.64)" fill="#45A56E"/>
<circle cx="7.6" cy="7.6" r="7.6" transform="matrix(-1 0 0 1 126.6 401.64)" fill="#45A56E"/>
<circle cx="7.6" cy="7.6" r="7.6" transform="matrix(-1 0 0 1 120.52 401.64)" fill="#45A56E"/>
<circle cx="7.6" cy="7.6" r="7.6" transform="matrix(-1 0 0 1 132.68 401.64)" fill="#45A56E"/>
<circle cx="7.6" cy="7.6" r="7.6" transform="matrix(-1 0 0 1 138 401.64)" fill="#45A56E"/>
<circle cx="7.6" cy="7.6" r="7.6" transform="matrix(-1 0 0 1 134.2 396.32)" fill="#45A56E"/>
<path d="M29 395H37V412.5L36.5 417V421.5L37 425.625V427.812L37.5 430H28.5L29 427.812L29.5 425.5V423.5L29 418V412.5V395Z" fill="#533913"/>
<circle cx="33" cy="393" r="10" fill="#45A56E"/>
<circle cx="43" cy="400" r="10" fill="#45A56E"/>
<circle cx="48" cy="407" r="10" fill="#45A56E"/>
<circle cx="33" cy="407" r="10" fill="#45A56E"/>
<circle cx="41" cy="407" r="10" fill="#45A56E"/>
<circle cx="25" cy="407" r="10" fill="#45A56E"/>
<circle cx="18" cy="407" r="10" fill="#45A56E"/>
<circle cx="23" cy="400" r="10" fill="#45A56E"/>
<g filter="url(#filter1_d_277_605)">
<circle cx="73.8687" cy="419.5" r="22.5" fill="#55DADB"/>
<rect x="51.3687" y="420" width="45" height="54" fill="#55DADB"/>
<rect x="61.0129" y="435.398" width="45.0658" height="15" transform="rotate(-9.11327 61.0129 435.398)" fill="#55DADB"/>
<ellipse cx="106.698" cy="435.665" rx="7.51097" ry="7.5" transform="rotate(-9.11327 106.698 435.665)" fill="#55DADB"/>
<rect x="78.9016" y="457.84" width="45.0658" height="15" transform="rotate(-150 78.9016 457.84)" fill="#55DADB"/>
<ellipse cx="43.6235" cy="428.812" rx="7.51097" ry="7.5" transform="rotate(-150 43.6235 428.812)" fill="#55DADB"/>
<circle cx="77.8687" cy="411.5" r="2.5" fill="black"/>
<circle cx="68.8687" cy="411.5" r="2.5" fill="black"/>
<path d="M67.6409 419.5L70.6409 421L73.6409 421.5L76.6409 421L79.6409 419.5" stroke="black" stroke-width="2" stroke-linecap="round"/>
<circle cx="77.8687" cy="406.5" r="2.5" fill="#55DADB"/>
<path d="M80.6409 414.5C80.6409 415.881 79.5216 417 78.1409 417C76.7602 417 75.6409 415.881 75.6409 414.5C75.6409 413.119 76.7602 412 78.1409 412C79.5216 412 80.6409 413.119 80.6409 414.5Z" fill="#55DADB"/>
<circle cx="68.1409" cy="414.5" r="2.5" fill="#55DADB"/>
</g>
<path d="M81.4705 405.294L76.6408 404" stroke="black" stroke-width="2" stroke-linecap="round"/>
<path d="M70.4705 404L65.6408 405.294" stroke="black" stroke-width="2" stroke-linecap="round"/>
<path d="M57.09 400.511L88.7946 398.925L92.8967 401.506L53.2659 403.488L57.09 400.511Z" fill="#E9EAA4"/>
<path d="M59.6805 392.719L65.5557 391.033L72.4563 389.991L79.4264 390.339L85.4405 391.431L88.795 398.925L57.0904 400.511L59.6805 392.719Z" fill="#E9EAA4"/>
<g filter="url(#filter2_d_277_605)">
<circle cx="220.698" cy="420.5" r="22.5" fill="#FC786E"/>
<rect x="198.47" y="421" width="45" height="53" fill="#FC786E"/>
<rect x="222.077" y="412.321" width="45.0658" height="15" transform="rotate(45 222.077 412.321)" fill="#FC786E"/>
<ellipse cx="248.64" cy="449.49" rx="7.51097" ry="7.5" transform="rotate(45 248.64 449.49)" fill="#FC786E"/>
<rect x="229.354" y="424.252" width="45.0658" height="15" transform="rotate(133.114 229.354 424.252)" fill="#FC786E"/>
<ellipse cx="193.078" cy="452.024" rx="7.51097" ry="7.5" transform="rotate(133.114 193.078 452.024)" fill="#FC786E"/>
<circle cx="224.698" cy="407.5" r="2.5" fill="#FC786E"/>
<path d="M228.05 406.897L223.72 404.397" stroke="black" stroke-width="2" stroke-linecap="round"/>
<path d="M217.3 405L212.47 406.294" stroke="black" stroke-width="2" stroke-linecap="round"/>
</g>
<path fill-rule="evenodd" clip-rule="evenodd" d="M227.433 413.5C227.566 413.194 227.641 412.856 227.641 412.5C227.641 411.119 226.521 410 225.141 410C223.76 410 222.641 411.119 222.641 412.5C222.641 412.856 222.715 413.194 222.849 413.5C223.234 412.617 224.115 412 225.141 412C226.166 412 227.047 412.617 227.433 413.5Z" fill="black"/>
<path fill-rule="evenodd" clip-rule="evenodd" d="M219.433 413.5C219.566 413.194 219.641 412.856 219.641 412.5C219.641 411.119 218.521 410 217.141 410C215.76 410 214.641 411.119 214.641 412.5C214.641 412.856 214.715 413.194 214.849 413.5C215.234 412.617 216.115 412 217.141 412C218.166 412 219.047 412.617 219.433 413.5Z" fill="black"/>
<g filter="url(#filter3_d_277_605)">
<circle cx="143.868" cy="433.5" r="22.5" fill="#F5BB02"/>
<rect x="121.641" y="434" width="45" height="40" fill="#F5BB02"/>
<rect x="140.141" y="429.517" width="45.0658" height="15" transform="rotate(30 140.141 429.517)" fill="#F5BB02"/>
<ellipse cx="175.419" cy="458.545" rx="7.51097" ry="7.5" transform="rotate(30 175.419 458.545)" fill="#F5BB02"/>
<rect x="148.901" y="471.84" width="45.0658" height="15" transform="rotate(-150 148.901 471.84)" fill="#F5BB02"/>
<ellipse cx="113.623" cy="442.812" rx="7.51097" ry="7.5" transform="rotate(-150 113.623 442.812)" fill="#F5BB02"/>
<circle cx="147.868" cy="425.5" r="2.5" fill="black"/>
<circle cx="138.868" cy="425.5" r="2.5" fill="black"/>
<circle cx="147.868" cy="420.5" r="2.5" fill="#F5BB02"/>
<circle cx="148.141" cy="428.5" r="2.5" fill="#F5BB02"/>
<path d="M141.641 428.5C141.641 429.881 140.521 431 139.141 431C137.76 431 136.641 429.881 136.641 428.5C136.641 427.119 137.76 426 139.141 426C140.521 426 141.641 427.119 141.641 428.5Z" fill="#F5BB02"/>
<path d="M151.47 418L146.641 419.294" stroke="black" stroke-width="2" stroke-linecap="round"/>
<path d="M140.47 416L135.641 417.294" stroke="black" stroke-width="2" stroke-linecap="round"/>
</g>
<path d="M219.641 419.5C219.641 420.881 218.521 422 217.141 422C215.76 422 214.641 420.881 214.641 419.5C214.641 418.119 215.76 417 217.141 417C218.521 417 219.641 418.119 219.641 419.5Z" fill="black"/>
<path d="M195.631 406.779L237.524 399.416L240.821 397.257L191.795 405.874L195.631 406.779Z" fill="#FFF3C8"/>
<path d="M202.436 394.527L205.231 392.457L207.394 391.287L211.09 389.847L212.622 389.578L216.452 388.905L217.984 388.636L221.183 388.863L223.615 389.225L226.949 390.219L230.863 399.007L201.754 404.124L202.436 394.527Z" fill="#FFF3C8"/>
<ellipse cx="1.55556" cy="2.07407" rx="1.55556" ry="2.07407" transform="matrix(-0.0876886 0.996148 0.996148 0.0876886 218.842 394.441)" fill="#65BD56"/>
<rect width="3.11111" height="4.14815" transform="matrix(-0.0876886 0.996148 0.996148 0.0876886 220.908 394.623)" fill="#65BD56"/>
<ellipse cx="228.873" cy="394.748" rx="1.55556" ry="2.07407" transform="rotate(65.0306 228.873 394.748)" fill="#65BD56"/>
<rect x="228.217" y="393.338" width="3.11111" height="4.14815" transform="rotate(65.0306 228.217 393.338)" fill="#65BD56"/>
<circle cx="224.51" cy="393.682" r="1.03704" transform="rotate(-9.96935 224.51 393.682)" fill="#F8A0FA"/>
<rect x="223.488" y="393.862" width="2.07407" height="2.07407" transform="rotate(-9.96935 223.488 393.862)" fill="#F8A0FA"/>
<circle cx="226.911" cy="395.365" r="1.03704" transform="rotate(80.0306 226.911 395.365)" fill="#F8A0FA"/>
<rect x="226.732" y="394.344" width="2.07407" height="2.07407" transform="rotate(80.0306 226.732 394.344)" fill="#F8A0FA"/>
<circle cx="225.228" cy="397.768" r="1.03704" transform="rotate(170.031 225.228 397.768)" fill="#F8A0FA"/>
<rect x="226.25" y="397.588" width="2.07407" height="2.07407" transform="rotate(170.031 226.25 397.588)" fill="#F8A0FA"/>
<circle cx="222.826" cy="396.084" r="1.03704" transform="rotate(-99.9694 222.826 396.084)" fill="#F8A0FA"/>
<rect x="223.006" y="397.105" width="2.07407" height="2.07407" transform="rotate(-99.9694 223.006 397.105)" fill="#F8A0FA"/>
<circle cx="222.964" cy="394.39" r="1.03704" transform="rotate(-54.9694 222.964 394.39)" fill="#F8A0FA"/>
<rect x="222.369" y="395.239" width="2.07407" height="2.07407" transform="rotate(-54.9694 222.369 395.239)" fill="#F8A0FA"/>
<circle cx="1.03704" cy="1.03704" r="1.03704" transform="matrix(-0.818845 -0.574014 -0.574014 0.818845 227.473 393.597)" fill="#F8A0FA"/>
<circle cx="1.03704" cy="1.03704" r="1.03704" transform="matrix(-0.818845 -0.574014 -0.574014 0.818845 224.948 397.2)" fill="#F8A0FA"/>
<circle cx="1.03704" cy="1.03704" r="1.03704" transform="matrix(-0.818845 -0.574014 -0.574014 0.818845 228.012 396.661)" fill="#F8A0FA"/>
<circle cx="224.869" cy="395.725" r="1.03704" transform="rotate(-9.96935 224.869 395.725)" fill="#F1F99D"/>
<rect width="27.8871" height="2.17768" transform="matrix(0.830575 0.556906 0.599385 -0.800461 259.885 451.952)" fill="#D9D9D9"/>
<rect width="7.4889" height="2.05946" transform="matrix(1.02302 -0.0648505 0.159436 -0.965721 282.948 468.109)" fill="#8E8888"/>
<rect width="6.11855" height="2.16358" transform="matrix(0.66773 0.72836 0.717444 -0.707635 288.655 467.601)" fill="#8E8888"/>
<path d="M284.347 474.284L290.579 475.515L291.351 473.553L285.119 472.323L284.347 474.284Z" fill="#8E8888"/>
<rect width="15.5825" height="2.10716" transform="matrix(1.01891 0.0828088 0.278165 -0.942913 245.503 451.442)" fill="#CFDA50"/>
<rect width="14.8537" height="2.17765" transform="matrix(0.825129 0.564112 0.604127 -0.797262 248.449 444.123)" fill="#CFDA50"/>
<rect width="1.76501" height="10.0831" transform="matrix(0.976018 0.27968 0.417859 -0.897026 243.851 450.792)" fill="#CFDA50"/>
<rect width="7.69961" height="2.01031" transform="matrix(0.147096 0.962464 0.956332 -0.364867 282.719 467.264)" fill="#8E8888"/>
<path d="M296.119 459.97L313.517 466.382L304.963 478.122L300.601 478.819L296.21 482.328L298.142 487.064L295.868 490.045L280.693 478.47L282.967 475.489L285.241 472.508L286.378 471.018L287.515 469.527L289.788 466.547L297.148 467.612L297.717 464.618L296.119 459.97Z" fill="#FF2727"/>
<path d="M297.84 456.78L312.971 462.997L313.196 466.037L295.661 459.636L297.84 456.78Z" fill="#D9D9D9"/>
<path d="M292.709 491.08L279.702 481.159L280.272 478.164L295.446 489.739L292.709 491.08Z" fill="#D9D9D9"/>
<path fill-rule="evenodd" clip-rule="evenodd" d="M291.424 469.256L292.172 469.937C292.332 469.712 292.441 469.483 292.499 469.248C292.557 469.014 292.569 468.782 292.533 468.552C292.498 468.321 292.419 468.097 292.297 467.882C292.176 467.668 292.014 467.468 291.811 467.284C291.504 467.004 291.163 466.823 290.789 466.741C290.415 466.657 290.035 466.684 289.649 466.821C289.262 466.958 288.895 467.217 288.548 467.598C288.202 467.979 287.978 468.367 287.876 468.763C287.775 469.16 287.783 469.54 287.899 469.904C288.017 470.269 288.231 470.593 288.543 470.877C288.767 471.081 288.999 471.23 289.238 471.324C289.478 471.418 289.716 471.466 289.95 471.467C290.187 471.468 290.41 471.429 290.621 471.35C290.834 471.271 291.023 471.161 291.189 471.018L290.444 470.334C290.342 470.412 290.236 470.467 290.125 470.499C290.015 470.533 289.904 470.545 289.792 470.536C289.68 470.526 289.57 470.496 289.461 470.444C289.353 470.394 289.249 470.323 289.15 470.233C288.973 470.073 288.857 469.888 288.802 469.68C288.746 469.471 288.758 469.248 288.837 469.01C288.917 468.773 289.071 468.53 289.298 468.28C289.518 468.038 289.743 467.865 289.971 467.763C290.2 467.66 290.422 467.625 290.638 467.658C290.854 467.69 291.052 467.789 291.233 467.953C291.333 468.045 291.413 468.143 291.473 468.249C291.533 468.356 291.572 468.467 291.59 468.58C291.607 468.694 291.602 468.808 291.575 468.923C291.549 469.036 291.498 469.147 291.424 469.256ZM294.337 474.642C294.725 474.506 295.092 474.248 295.439 473.866C295.786 473.485 296.008 473.095 296.107 472.696C296.207 472.298 296.197 471.916 296.076 471.55C295.957 471.184 295.744 470.861 295.435 470.58C295.124 470.298 294.781 470.115 294.406 470.031C294.032 469.947 293.651 469.973 293.264 470.11C292.877 470.247 292.511 470.506 292.164 470.887C291.818 471.268 291.595 471.657 291.495 472.055C291.395 472.453 291.405 472.834 291.523 473.2C291.642 473.566 291.857 473.89 292.167 474.173C292.476 474.454 292.817 474.636 293.192 474.721C293.568 474.806 293.95 474.779 294.337 474.642ZM295.147 472.459C295.066 472.695 294.914 472.937 294.689 473.184C294.464 473.431 294.238 473.606 294.01 473.708C293.783 473.812 293.563 473.847 293.35 473.813C293.137 473.78 292.941 473.682 292.762 473.519C292.583 473.357 292.467 473.171 292.414 472.962C292.36 472.753 292.374 472.53 292.454 472.294C292.536 472.058 292.689 471.816 292.913 471.569C293.138 471.322 293.364 471.147 293.591 471.044C293.819 470.941 294.04 470.907 294.253 470.94C294.466 470.974 294.662 471.072 294.84 471.234C295.019 471.397 295.135 471.583 295.189 471.792C295.242 472 295.228 472.223 295.147 472.459ZM297.577 472.616L294.396 476.113L296.635 478.149L297.189 477.54L295.69 476.176L298.316 473.289L297.577 472.616ZM297.024 478.503L297.816 479.224L298.801 478.663L299.845 479.612L299.847 479.611L300.168 479.579L300.887 479.509L301.291 479.469L302.365 476.971L301.412 476.104L297.024 478.503ZM300.401 479.063L301.175 477.349L301.148 477.324L299.514 478.256L300.401 479.063Z" fill="white"/>
<rect width="7.69961" height="2.01031" transform="matrix(0.147096 0.962464 0.956332 -0.364867 282.641 467.733)" fill="#8E8888"/>
<path d="M283.641 474.961L289.873 476.192L290.645 474.231L284.412 473L283.641 474.961Z" fill="#8E8888"/>
<path d="M137.791 434.702C137.708 433.878 138.309 433.143 139.133 433.059L148.137 432.151C148.961 432.068 149.697 432.668 149.78 433.493V433.493C149.863 434.317 149.263 435.052 148.438 435.136L139.434 436.044C138.61 436.127 137.874 435.527 137.791 434.702V434.702Z" fill="black"/>
<path d="M171.095 444.617L184.647 448.382L185.682 451.536C185.743 451.723 185.748 451.925 185.695 452.115L184.969 454.727L183.399 460.379C183.37 460.483 183.325 460.581 183.265 460.67L179.992 465.529C179.872 465.709 179.812 465.922 179.823 466.138L180.058 470.766C180.093 471.447 179.449 471.963 178.792 471.78L165.604 468.116C165.072 467.968 164.761 467.417 164.908 466.885L167.868 456.233L169.417 450.658C169.459 450.505 169.538 450.364 169.646 450.247L171.432 448.313C171.651 448.076 171.742 447.748 171.676 447.432L171.095 444.617Z" fill="#AFFFE7" fill-opacity="0.6"/>
<path d="M181.846 438.478C181.881 438.611 181.801 438.748 181.667 438.782L176.314 440.164C176.181 440.198 176.044 440.118 176.01 439.984L175.13 436.577C175.096 436.444 175.176 436.307 175.31 436.273L180.662 434.891C180.796 434.857 180.933 434.937 180.967 435.071L181.846 438.478Z" fill="#3834FF"/>
<path d="M176.58 439.884L180.99 439.024L184.647 448.381L171.095 444.617L176.58 439.884Z" fill="#AFFFE7" fill-opacity="0.6"/>
<path d="M171.955 449.026L173.891 449.564L177.763 450.64L185.507 452.791L183.356 460.535L180.344 463.869L166.792 460.104L168.406 454.296L169.213 451.392L171.955 449.026Z" fill="#D9D9D9"/>
<path d="M171.095 444.617L184.647 448.382L185.682 451.536C185.743 451.723 185.748 451.925 185.695 452.115L184.969 454.727L183.399 460.379C183.37 460.483 183.325 460.581 183.265 460.67L179.992 465.529C179.872 465.709 179.812 465.922 179.823 466.138L180.058 470.766C180.093 471.447 179.449 471.963 178.792 471.78L165.604 468.116C165.072 467.968 164.761 467.417 164.908 466.885L167.868 456.233L169.417 450.658C169.459 450.505 169.538 450.364 169.646 450.247L171.432 448.313C171.651 448.076 171.742 447.748 171.676 447.432L171.095 444.617Z" fill="#AFFFE7" fill-opacity="0.6"/>
<path d="M181.846 438.478C181.881 438.611 181.801 438.748 181.667 438.782L176.314 440.164C176.181 440.198 176.044 440.118 176.01 439.984L175.13 436.577C175.096 436.444 175.176 436.307 175.31 436.273L180.662 434.891C180.796 434.857 180.933 434.937 180.967 435.071L181.846 438.478Z" fill="#3834FF"/>
<path d="M176.58 439.884L180.99 439.024L184.647 448.381L171.095 444.617L176.58 439.884Z" fill="#AFFFE7" fill-opacity="0.6"/>
<path d="M171.955 449.026L173.891 449.564L177.763 450.64L185.507 452.791L183.356 460.535L180.344 463.869L166.792 460.104L168.406 454.296L169.213 451.392L171.955 449.026Z" fill="#D9D9D9"/>
<path fill-rule="evenodd" clip-rule="evenodd" d="M167.739 457.695L168.603 457.935C168.787 457.986 168.95 457.999 169.091 457.975C169.233 457.951 169.35 457.897 169.442 457.813C169.535 457.729 169.6 457.622 169.636 457.492C169.669 457.371 169.673 457.26 169.646 457.159C169.619 457.057 169.571 456.97 169.503 456.899C169.435 456.827 169.355 456.777 169.262 456.747L169.269 456.723C169.36 456.727 169.444 456.716 169.523 456.689C169.603 456.661 169.672 456.617 169.731 456.556C169.789 456.494 169.832 456.415 169.858 456.319C169.893 456.196 169.892 456.079 169.858 455.968C169.824 455.856 169.754 455.757 169.648 455.67C169.542 455.583 169.399 455.514 169.219 455.464L168.42 455.242L167.739 457.695ZM169.167 452.554L169.178 453.943L169.683 454.083L170.595 452.609L170.614 452.615L170.636 454.348L171.141 454.488L172.524 452.231L171.958 452.073L171.077 453.668L171.056 453.662L171.083 451.831L170.598 451.696L169.677 453.275L169.657 453.27L169.724 451.453L169.491 451.388L169.167 452.554ZM172.284 454.717C172.398 454.834 172.548 454.918 172.734 454.97C172.92 455.021 173.092 455.026 173.248 454.985C173.406 454.943 173.542 454.861 173.655 454.739C173.768 454.617 173.851 454.461 173.903 454.273C173.956 454.083 173.965 453.906 173.931 453.744C173.897 453.581 173.824 453.441 173.71 453.324C173.597 453.207 173.448 453.122 173.262 453.07C173.076 453.019 172.904 453.014 172.746 453.056C172.589 453.098 172.454 453.18 172.341 453.302C172.228 453.424 172.145 453.58 172.092 453.77C172.04 453.958 172.031 454.134 172.064 454.297C172.098 454.46 172.172 454.6 172.284 454.717ZM173.078 454.562C173.008 454.594 172.931 454.599 172.846 454.575C172.761 454.551 172.696 454.508 172.651 454.443C172.607 454.379 172.582 454.3 172.575 454.208C172.57 454.117 172.582 454.017 172.612 453.91C172.642 453.803 172.682 453.712 172.734 453.636C172.787 453.56 172.849 453.506 172.92 453.473C172.992 453.441 173.071 453.437 173.156 453.46C173.241 453.484 173.305 453.528 173.348 453.592C173.391 453.657 173.415 453.735 173.421 453.827C173.427 453.919 173.415 454.018 173.385 454.125C173.356 454.232 173.314 454.323 173.262 454.399C173.21 454.475 173.148 454.529 173.078 454.562ZM174.492 453.438L173.981 455.277L174.491 455.419L174.78 454.378C174.801 454.303 174.836 454.242 174.886 454.194C174.936 454.146 174.995 454.114 175.062 454.098C175.13 454.082 175.202 454.084 175.277 454.105C175.312 454.115 175.35 454.128 175.391 454.146C175.432 454.163 175.463 454.179 175.485 454.192L175.611 453.74C175.59 453.728 175.565 453.716 175.536 453.705C175.508 453.694 175.481 453.684 175.455 453.677C175.352 453.649 175.253 453.653 175.157 453.69C175.062 453.726 174.982 453.797 174.917 453.902L174.898 453.896L174.987 453.575L174.492 453.438ZM176.836 454.502L176.943 454.119L176.597 454.023L176.719 453.582L176.209 453.44L176.086 453.881L175.835 453.811L175.728 454.194L175.98 454.264L175.714 455.222C175.68 455.342 175.677 455.449 175.706 455.543C175.735 455.636 175.79 455.714 175.872 455.777C175.954 455.84 176.057 455.886 176.182 455.916C176.248 455.932 176.307 455.941 176.356 455.942C176.405 455.945 176.444 455.946 176.471 455.945L176.497 455.543C176.483 455.542 176.464 455.54 176.439 455.538C176.414 455.536 176.389 455.531 176.365 455.524C176.331 455.515 176.302 455.501 176.278 455.484C176.256 455.466 176.241 455.443 176.234 455.413C176.226 455.383 176.229 455.344 176.243 455.297L176.49 454.406L176.836 454.502ZM177.116 456.063C177.231 456.178 177.383 456.261 177.572 456.314C177.724 456.356 177.864 456.37 177.993 456.356C178.123 456.341 178.236 456.302 178.333 456.239C178.43 456.175 178.507 456.089 178.562 455.983L178.099 455.82C178.069 455.862 178.032 455.894 177.99 455.916C177.948 455.939 177.901 455.952 177.849 455.955C177.797 455.958 177.743 455.951 177.687 455.935C177.601 455.912 177.532 455.873 177.48 455.82C177.428 455.767 177.394 455.702 177.378 455.626C177.363 455.551 177.368 455.468 177.393 455.377L177.393 455.375L178.646 455.723L178.685 455.583C178.728 455.427 178.744 455.284 178.733 455.155C178.722 455.026 178.687 454.911 178.63 454.812C178.573 454.713 178.497 454.629 178.402 454.562C178.309 454.494 178.201 454.443 178.08 454.409C177.899 454.359 177.731 454.355 177.575 454.398C177.419 454.44 177.285 454.523 177.172 454.646C177.059 454.768 176.976 454.924 176.923 455.113C176.869 455.307 176.859 455.485 176.893 455.648C176.927 455.81 177.002 455.948 177.116 456.063ZM177.482 455.059C177.503 454.994 177.537 454.939 177.583 454.893C177.633 454.842 177.693 454.807 177.761 454.789C177.831 454.769 177.905 454.771 177.982 454.792C178.057 454.813 178.117 454.847 178.164 454.895C178.212 454.943 178.244 455 178.26 455.065C178.276 455.131 178.274 455.2 178.254 455.274L177.482 455.059ZM179.271 454.766L178.76 456.605L179.27 456.747L179.559 455.706C179.58 455.631 179.615 455.569 179.664 455.521C179.715 455.473 179.773 455.441 179.841 455.426C179.909 455.409 179.98 455.412 180.055 455.432C180.091 455.442 180.129 455.456 180.169 455.473C180.21 455.49 180.241 455.506 180.263 455.52L180.389 455.067C180.368 455.055 180.344 455.044 180.315 455.032C180.286 455.021 180.259 455.012 180.234 455.005C180.131 454.976 180.031 454.98 179.936 455.017C179.841 455.054 179.761 455.124 179.695 455.229L179.676 455.224L179.765 454.903L179.271 454.766ZM180.651 455.149L180.14 456.988L180.65 457.13L180.939 456.089C180.96 456.014 180.995 455.953 181.044 455.905C181.095 455.857 181.153 455.825 181.22 455.809C181.289 455.793 181.36 455.795 181.435 455.816C181.47 455.826 181.508 455.839 181.549 455.856C181.59 455.874 181.621 455.889 181.643 455.903L181.769 455.451C181.748 455.439 181.723 455.427 181.695 455.416C181.666 455.404 181.639 455.395 181.614 455.388C181.511 455.359 181.411 455.364 181.316 455.401C181.221 455.437 181.14 455.508 181.075 455.613L181.056 455.607L181.145 455.286L180.651 455.149ZM181.805 457.366C181.921 457.481 182.073 457.564 182.262 457.617C182.414 457.659 182.554 457.673 182.683 457.659C182.812 457.644 182.925 457.605 183.022 457.541C183.12 457.477 183.196 457.392 183.252 457.285L182.789 457.123C182.758 457.165 182.722 457.197 182.679 457.219C182.637 457.242 182.59 457.255 182.539 457.258C182.487 457.26 182.433 457.254 182.376 457.238C182.291 457.214 182.222 457.176 182.17 457.123C182.117 457.07 182.083 457.005 182.067 456.929C182.052 456.854 182.057 456.77 182.083 456.679L182.083 456.678L183.336 457.026L183.374 456.886C183.418 456.73 183.434 456.587 183.422 456.458C183.411 456.329 183.377 456.214 183.319 456.115C183.262 456.016 183.187 455.932 183.092 455.865C182.998 455.796 182.891 455.745 182.769 455.712C182.589 455.662 182.421 455.658 182.264 455.7C182.109 455.743 181.974 455.826 181.861 455.948C181.748 456.071 181.665 456.227 181.613 456.416C181.559 456.61 181.549 456.788 181.583 456.951C181.617 457.112 181.691 457.251 181.805 457.366ZM182.171 456.362C182.193 456.297 182.226 456.241 182.272 456.195C182.323 456.145 182.382 456.11 182.451 456.092C182.521 456.072 182.595 456.073 182.672 456.095C182.746 456.116 182.807 456.15 182.854 456.198C182.901 456.246 182.933 456.303 182.95 456.368C182.966 456.434 182.964 456.503 182.943 456.577L182.171 456.362ZM168.614 457.481L168.192 457.364L168.373 456.712L168.807 456.833C168.89 456.856 168.958 456.891 169.009 456.937C169.062 456.983 169.097 457.037 169.116 457.098C169.134 457.159 169.134 457.224 169.115 457.291C169.089 457.384 169.035 457.449 168.953 457.486C168.872 457.523 168.759 457.521 168.614 457.481ZM168.855 456.468L168.47 456.362L168.639 455.754L169.033 455.864C169.148 455.896 169.229 455.948 169.276 456.019C169.324 456.091 169.336 456.171 169.311 456.26C169.293 456.324 169.261 456.375 169.216 456.413C169.171 456.45 169.117 456.474 169.054 456.484C168.992 456.493 168.926 456.488 168.855 456.468ZM170.147 458.275C170.26 458.391 170.41 458.476 170.596 458.527C170.782 458.579 170.954 458.584 171.111 458.542C171.269 458.5 171.404 458.418 171.517 458.297C171.63 458.174 171.713 458.019 171.765 457.83C171.818 457.64 171.827 457.464 171.793 457.302C171.76 457.138 171.686 456.998 171.572 456.881C171.459 456.764 171.31 456.68 171.124 456.628C170.938 456.576 170.766 456.572 170.608 456.614C170.451 456.655 170.316 456.737 170.203 456.86C170.09 456.981 170.007 457.137 169.955 457.327C169.902 457.516 169.893 457.692 169.927 457.855C169.961 458.017 170.034 458.157 170.147 458.275ZM170.941 458.12C170.871 458.152 170.793 458.156 170.709 458.133C170.623 458.109 170.558 458.065 170.513 458.001C170.469 457.936 170.444 457.858 170.438 457.766C170.432 457.674 170.444 457.575 170.474 457.468C170.504 457.361 170.545 457.269 170.597 457.194C170.65 457.118 170.711 457.064 170.782 457.031C170.854 456.999 170.933 456.994 171.018 457.018C171.103 457.041 171.167 457.085 171.21 457.15C171.253 457.214 171.277 457.292 171.283 457.384C171.289 457.476 171.277 457.576 171.248 457.683C171.218 457.79 171.177 457.881 171.124 457.957C171.072 458.032 171.011 458.087 170.941 458.12ZM173.226 457.651L173.333 457.267L172.987 457.171L173.109 456.731L172.599 456.589L172.477 457.03L172.225 456.96L172.119 457.343L172.37 457.413L172.104 458.371C172.07 458.491 172.067 458.598 172.096 458.691C172.125 458.784 172.181 458.862 172.262 458.926C172.344 458.989 172.447 459.035 172.572 459.064C172.639 459.08 172.697 459.089 172.746 459.091C172.795 459.093 172.834 459.094 172.862 459.093L172.887 458.691C172.873 458.69 172.854 458.689 172.829 458.687C172.804 458.684 172.779 458.68 172.755 458.673C172.721 458.663 172.692 458.65 172.669 458.632C172.646 458.615 172.631 458.591 172.624 458.562C172.617 458.531 172.62 458.493 172.633 458.445L172.88 457.554L173.226 457.651ZM173.506 459.212C173.621 459.326 173.773 459.41 173.963 459.462C174.114 459.505 174.255 459.519 174.383 459.504C174.513 459.49 174.626 459.451 174.723 459.387C174.82 459.323 174.897 459.238 174.953 459.131L174.489 458.969C174.459 459.01 174.423 459.042 174.38 459.065C174.338 459.088 174.291 459.1 174.239 459.103C174.188 459.106 174.134 459.1 174.077 459.084C173.991 459.06 173.923 459.022 173.87 458.969C173.818 458.915 173.784 458.851 173.768 458.775C173.753 458.699 173.758 458.616 173.783 458.525L173.784 458.524L175.036 458.872L175.075 458.732C175.119 458.575 175.135 458.433 175.123 458.304C175.112 458.174 175.077 458.06 175.02 457.961C174.963 457.861 174.887 457.778 174.793 457.71C174.699 457.642 174.591 457.591 174.47 457.558C174.29 457.507 174.121 457.504 173.965 457.546C173.809 457.589 173.675 457.672 173.562 457.794C173.449 457.917 173.366 458.073 173.313 458.262C173.259 458.456 173.249 458.634 173.283 458.796C173.318 458.958 173.392 459.097 173.506 459.212ZM173.872 458.208C173.893 458.143 173.927 458.087 173.973 458.041C174.023 457.991 174.083 457.956 174.152 457.937C174.221 457.918 174.295 457.919 174.373 457.941C174.447 457.961 174.507 457.996 174.554 458.044C174.602 458.092 174.634 458.148 174.65 458.214C174.666 458.279 174.664 458.349 174.644 458.422L173.872 458.208ZM175.66 459.895L176.341 457.443L175.831 457.301L175.15 459.754L175.66 459.895ZM176.579 460.151L177.26 457.698L176.75 457.556L176.069 460.009L176.579 460.151ZM177.359 460.282C177.474 460.397 177.627 460.48 177.816 460.533C177.967 460.575 178.108 460.589 178.236 460.575C178.366 460.56 178.479 460.521 178.576 460.458C178.674 460.394 178.75 460.308 178.806 460.202L178.342 460.039C178.312 460.081 178.276 460.113 178.233 460.136C178.191 460.158 178.144 460.171 178.092 460.174C178.041 460.177 177.987 460.17 177.93 460.154C177.845 460.131 177.776 460.092 177.723 460.039C177.671 459.986 177.637 459.921 177.621 459.845C177.606 459.77 177.611 459.687 177.636 459.596L177.637 459.594L178.889 459.942L178.928 459.802C178.972 459.646 178.988 459.503 178.976 459.374C178.965 459.245 178.93 459.13 178.873 459.031C178.816 458.932 178.74 458.848 178.646 458.781C178.552 458.713 178.444 458.662 178.323 458.628C178.143 458.578 177.974 458.574 177.818 458.617C177.662 458.659 177.528 458.742 177.415 458.865C177.302 458.987 177.219 459.143 177.166 459.332C177.113 459.526 177.103 459.704 177.137 459.867C177.171 460.029 177.245 460.167 177.359 460.282ZM177.725 459.278C177.746 459.213 177.78 459.158 177.826 459.112C177.876 459.061 177.936 459.027 178.005 459.008C178.075 458.989 178.148 458.99 178.226 459.011C178.3 459.032 178.36 459.066 178.407 459.114C178.455 459.162 178.487 459.219 178.503 459.284C178.519 459.35 178.517 459.419 178.497 459.493L177.725 459.278ZM178.592 457.886L178.187 458.361L178.548 458.461L179.064 458.017L178.592 457.886Z" fill="black"/>
<g filter="url(#filter4_i_277_605)">
<path d="M40.6933 426.56L46.4469 428.262L51.9708 432.503L60.6617 450.716L58.5884 459.488L52.5714 463.965L47.2634 466.045L40.9426 466.261L32.7917 463.85L28.0308 458.792L27.619 451.371L30.5973 441.302L40.6933 426.56Z" fill="#434343"/>
</g>
<path d="M40.8598 420.077L46.3998 419.577L47.8998 420.077L46.8998 422.577L45.1015 424.559L42.1015 423.559L39.7888 422.577L40.8598 421.391L39.7888 420.077L40.1015 418.391L40.8598 420.077Z" fill="#6D6D6D"/>
<path d="M46.6015 418.059L44.1016 425.059L42.4664 423.687L39.6015 418.059L43.1015 418.559L46.6015 418.059Z" fill="#515151"/>
<path d="M46.6015 418.559L48.3515 419.309L48.3515 419.891L44.7662 422.108L42.1131 421.863L41.8574 422.961L41.6017 424.059L39.7889 424.391L40.0832 423.058L41.5616 420.686L46.6015 418.559Z" fill="#565656"/>
<path d="M46.6015 418.559L48.3515 419.309L48.3515 419.891L44.7662 422.108L42.1131 421.863L41.8574 422.961L41.6017 424.059L39.7889 424.391L40.0832 423.058L41.5616 420.686L46.6015 418.559Z" fill="#565656"/>
<path d="M40.2887 418.891L43.7218 419.736L43.7258 422.4L46.6014 423.059L44.7887 424.391L42.6054 423.059L40.2887 418.891Z" fill="#5B5B5B"/>
<path d="M157.911 415.432C157.965 414.859 154.094 414.386 148.57 413.711C143.047 413.037 137.994 412.42 137.908 412.989C138.583 407.466 143.607 403.535 149.131 404.209C154.655 404.884 158.586 409.908 157.911 415.432Z" fill="#6D60FF"/>
<rect x="129.892" y="409.919" width="29" height="2" rx="1" transform="rotate(6.96251 129.892 409.919)" fill="#6D60FF"/>
<line x1="149.468" y1="402.235" x2="149.105" y2="405.213" stroke="black"/>
<ellipse cx="153.439" cy="402.72" rx="3.5" ry="1" transform="rotate(6.96251 153.439 402.72)" fill="#FF4F4F"/>
<ellipse cx="145.498" cy="401.75" rx="3.5" ry="1" transform="rotate(6.96251 145.498 401.75)" fill="#FF4F4F"/>
<ellipse cx="149.529" cy="401.739" rx="1.5" ry="0.5" transform="rotate(6.96251 149.529 401.739)" fill="black"/>
<path d="M149.165 404.717L152.185 412.137L144.448 411.193L149.165 404.717Z" fill="#F5BB02"/>
<path d="M149.165 404.717L145.369 411.305L139.352 410.57L140.061 409.146L141.236 407.778L142.906 406.471L144.02 405.6L146.127 404.849L149.165 404.717Z" fill="#FF4F4F"/>
<path d="M149.134 404.713L151.233 412.021L157.25 412.756L156.936 411.206L156.094 409.593L154.787 407.922L153.947 406.812L152.083 405.577L149.134 404.713Z" fill="#6AAF88"/>
<path d="M223.675 248.968L229 246" stroke="black" stroke-linecap="round"/>
<path d="M229 246L231.89 247.804" stroke="black" stroke-linecap="round"/>
<path d="M239 248L234 246" stroke="black" stroke-linecap="round"/>
<path d="M234 246L232 248" stroke="black" stroke-linecap="round"/>
<path d="M215.366 278.468L210.041 275.5" stroke="black" stroke-linecap="round"/>
<path d="M210.041 275.5L207.151 277.304" stroke="black" stroke-linecap="round"/>
<path d="M200.041 277.5L205.041 275.5" stroke="black" stroke-linecap="round"/>
<path d="M205.041 275.5L207.041 277.5" stroke="black" stroke-linecap="round"/>
<path d="M262.319 258.468L267.644 255.5" stroke="black" stroke-linecap="round"/>
<path d="M267.644 255.5L270.534 257.304" stroke="black" stroke-linecap="round"/>
<path d="M277.644 257.5L272.644 255.5" stroke="black" stroke-linecap="round"/>
<path d="M272.644 255.5L270.644 257.5" stroke="black" stroke-linecap="round"/>
<g filter="url(#filter5_i_277_605)">
<ellipse cx="131" cy="115.529" rx="22.8" ry="18.5294" fill="#F8F8F8"/>
<ellipse cx="153.8" cy="128.5" rx="22.8" ry="18.5294" fill="#F8F8F8"/>
<ellipse cx="165.2" cy="141.471" rx="22.8" ry="18.5294" fill="#F8F8F8"/>
<ellipse cx="131" cy="141.471" rx="22.8" ry="18.5294" fill="#F8F8F8"/>
<ellipse cx="149.24" cy="141.471" rx="22.8" ry="18.5294" fill="#F8F8F8"/>
<ellipse cx="112.76" cy="141.471" rx="22.8" ry="18.5294" fill="#F8F8F8"/>
<ellipse cx="96.8" cy="141.471" rx="22.8" ry="18.5294" fill="#F8F8F8"/>
<ellipse cx="108.2" cy="128.5" rx="22.8" ry="18.5294" fill="#F8F8F8"/>
</g>
<g filter="url(#filter6_i_277_605)">
<ellipse cx="254.905" cy="176.647" rx="15.5619" ry="12.6471" fill="#F8F8F8"/>
<ellipse cx="270.467" cy="185.5" rx="15.5619" ry="12.6471" fill="#F8F8F8"/>
<ellipse cx="278.248" cy="194.353" rx="15.5619" ry="12.6471" fill="#F8F8F8"/>
<ellipse cx="254.905" cy="194.353" rx="15.5619" ry="12.6471" fill="#F8F8F8"/>
<ellipse cx="267.354" cy="194.353" rx="15.5619" ry="12.6471" fill="#F8F8F8"/>
<ellipse cx="242.455" cy="194.353" rx="15.5619" ry="12.6471" fill="#F8F8F8"/>
<ellipse cx="231.562" cy="194.353" rx="15.5619" ry="12.6471" fill="#F8F8F8"/>
<ellipse cx="239.343" cy="185.5" rx="15.5619" ry="12.6471" fill="#F8F8F8"/>
</g>
<g filter="url(#filter7_i_277_605)">
<ellipse cx="57.9047" cy="197.647" rx="15.5619" ry="12.6471" fill="#F8F8F8"/>
<ellipse cx="73.4667" cy="206.5" rx="15.5619" ry="12.6471" fill="#F8F8F8"/>
<ellipse cx="81.2477" cy="215.353" rx="15.5619" ry="12.6471" fill="#F8F8F8"/>
<ellipse cx="57.9047" cy="215.353" rx="15.5619" ry="12.6471" fill="#F8F8F8"/>
<ellipse cx="70.3544" cy="215.353" rx="15.5619" ry="12.6471" fill="#F8F8F8"/>
<ellipse cx="45.4552" cy="215.353" rx="15.5619" ry="12.6471" fill="#F8F8F8"/>
<ellipse cx="34.5619" cy="215.353" rx="15.5619" ry="12.6471" fill="#F8F8F8"/>
<ellipse cx="42.3429" cy="206.5" rx="15.5619" ry="12.6471" fill="#F8F8F8"/>
</g>
<defs>
<filter id="filter0_d_277_605" x="249.141" y="413.5" width="59" height="23" filterUnits="userSpaceOnUse" color-interpolation-filters="sRGB">
<feFlood flood-opacity="0" result="BackgroundImageFix"/>
<feColorMatrix in="SourceAlpha" type="matrix" values="0 0 0 0 0 0 0 0 0 0 0 0 0 0 0 0 0 0 127 0" result="hardAlpha"/>
<feOffset dx="-0.5" dy="0.5"/>
<feGaussianBlur stdDeviation="0.5"/>
<feComposite in2="hardAlpha" operator="out"/>
<feColorMatrix type="matrix" values="0 0 0 0 0 0 0 0 0 0 0 0 0 0 0 0 0 0 0.25 0"/>
<feBlend mode="normal" in2="BackgroundImageFix" result="effect1_dropShadow_277_605"/>
<feBlend mode="normal" in="SourceGraphic" in2="effect1_dropShadow_277_605" result="shape"/>
</filter>
<filter id="filter1_d_277_605" x="32.114" y="397" width="86.0957" height="85" filterUnits="userSpaceOnUse" color-interpolation-filters="sRGB">
<feFlood flood-opacity="0" result="BackgroundImageFix"/>
<feColorMatrix in="SourceAlpha" type="matrix" values="0 0 0 0 0 0 0 0 0 0 0 0 0 0 0 0 0 0 127 0" result="hardAlpha"/>
<feOffset dy="4"/>
<feGaussianBlur stdDeviation="2"/>
<feComposite in2="hardAlpha" operator="out"/>
<feColorMatrix type="matrix" values="0 0 0 0 0 0 0 0 0 0 0 0 0 0 0 0 0 0 0.25 0"/>
<feBlend mode="normal" in2="BackgroundImageFix" result="effect1_dropShadow_277_605"/>
<feBlend mode="normal" in="SourceGraphic" in2="effect1_dropShadow_277_605" result="shape"/>
</filter>
<filter id="filter2_d_277_605" x="181.573" y="398" width="78.5718" height="84" filterUnits="userSpaceOnUse" color-interpolation-filters="sRGB">
<feFlood flood-opacity="0" result="BackgroundImageFix"/>
<feColorMatrix in="SourceAlpha" type="matrix" values="0 0 0 0 0 0 0 0 0 0 0 0 0 0 0 0 0 0 127 0" result="hardAlpha"/>
<feOffset dy="4"/>
<feGaussianBlur stdDeviation="2"/>
<feComposite in2="hardAlpha" operator="out"/>
<feColorMatrix type="matrix" values="0 0 0 0 0 0 0 0 0 0 0 0 0 0 0 0 0 0 0.25 0"/>
<feBlend mode="normal" in2="BackgroundImageFix" result="effect1_dropShadow_277_605"/>
<feBlend mode="normal" in="SourceGraphic" in2="effect1_dropShadow_277_605" result="shape"/>
</filter>
<filter id="filter3_d_277_605" x="102.114" y="411" width="84.8145" height="71" filterUnits="userSpaceOnUse" color-interpolation-filters="sRGB">
<feFlood flood-opacity="0" result="BackgroundImageFix"/>
<feColorMatrix in="SourceAlpha" type="matrix" values="0 0 0 0 0 0 0 0 0 0 0 0 0 0 0 0 0 0 127 0" result="hardAlpha"/>
<feOffset dy="4"/>
<feGaussianBlur stdDeviation="2"/>
<feComposite in2="hardAlpha" operator="out"/>
<feColorMatrix type="matrix" values="0 0 0 0 0 0 0 0 0 0 0 0 0 0 0 0 0 0 0.25 0"/>
<feBlend mode="normal" in2="BackgroundImageFix" result="effect1_dropShadow_277_605"/>
<feBlend mode="normal" in="SourceGraphic" in2="effect1_dropShadow_277_605" result="shape"/>
</filter>
<filter id="filter4_i_277_605" x="27.6189" y="425.56" width="34.0427" height="40.7012" filterUnits="userSpaceOnUse" color-interpolation-filters="sRGB">
<feFlood flood-opacity="0" result="BackgroundImageFix"/>
<feBlend mode="normal" in="SourceGraphic" in2="BackgroundImageFix" result="shape"/>
<feColorMatrix in="SourceAlpha" type="matrix" values="0 0 0 0 0 0 0 0 0 0 0 0 0 0 0 0 0 0 127 0" result="hardAlpha"/>
<feOffset dx="3" dy="-3"/>
<feGaussianBlur stdDeviation="0.5"/>
<feComposite in2="hardAlpha" operator="arithmetic" k2="-1" k3="1"/>
<feColorMatrix type="matrix" values="0 0 0 0 0 0 0 0 0 0 0 0 0 0 0 0 0 0 0.25 0"/>
<feBlend mode="normal" in2="shape" result="effect1_innerShadow_277_605"/>
</filter>
<filter id="filter5_i_277_605" x="74" y="93" width="116" height="67" filterUnits="userSpaceOnUse" color-interpolation-filters="sRGB">
<feFlood flood-opacity="0" result="BackgroundImageFix"/>
<feBlend mode="normal" in="SourceGraphic" in2="BackgroundImageFix" result="shape"/>
<feColorMatrix in="SourceAlpha" type="matrix" values="0 0 0 0 0 0 0 0 0 0 0 0 0 0 0 0 0 0 127 0" result="hardAlpha"/>
<feOffset dx="2" dy="-4"/>
<feGaussianBlur stdDeviation="2.5"/>
<feComposite in2="hardAlpha" operator="arithmetic" k2="-1" k3="1"/>
<feColorMatrix type="matrix" values="0 0 0 0 0 0 0 0 0 0 0 0 0 0 0 0 0 0 0.25 0"/>
<feBlend mode="normal" in2="shape" result="effect1_innerShadow_277_605"/>
</filter>
<filter id="filter6_i_277_605" x="216" y="160" width="78.8096" height="47" filterUnits="userSpaceOnUse" color-interpolation-filters="sRGB">
<feFlood flood-opacity="0" result="BackgroundImageFix"/>
<feBlend mode="normal" in="SourceGraphic" in2="BackgroundImageFix" result="shape"/>
<feColorMatrix in="SourceAlpha" type="matrix" values="0 0 0 0 0 0 0 0 0 0 0 0 0 0 0 0 0 0 127 0" result="hardAlpha"/>
<feOffset dx="1" dy="-4"/>
<feGaussianBlur stdDeviation="2.5"/>
<feComposite in2="hardAlpha" operator="arithmetic" k2="-1" k3="1"/>
<feColorMatrix type="matrix" values="0 0 0 0 0 0 0 0 0 0 0 0 0 0 0 0 0 0 0.25 0"/>
<feBlend mode="normal" in2="shape" result="effect1_innerShadow_277_605"/>
</filter>
<filter id="filter7_i_277_605" x="19" y="183" width="79.8096" height="45" filterUnits="userSpaceOnUse" color-interpolation-filters="sRGB">
<feFlood flood-opacity="0" result="BackgroundImageFix"/>
<feBlend mode="normal" in="SourceGraphic" in2="BackgroundImageFix" result="shape"/>
<feColorMatrix in="SourceAlpha" type="matrix" values="0 0 0 0 0 0 0 0 0 0 0 0 0 0 0 0 0 0 127 0" result="hardAlpha"/>
<feOffset dx="2" dy="-2"/>
<feGaussianBlur stdDeviation="3.5"/>
<feComposite in2="hardAlpha" operator="arithmetic" k2="-1" k3="1"/>
<feColorMatrix type="matrix" values="0 0 0 0 0 0 0 0 0 0 0 0 0 0 0 0 0 0 0.25 0"/>
<feBlend mode="normal" in2="shape" result="effect1_innerShadow_277_605"/>
</filter>
<linearGradient id="paint0_linear_277_605" x1="178.5" y1="124" x2="301" y2="49" gradientUnits="userSpaceOnUse">
<stop stop-color="#06B7C2"/>
<stop offset="1" stop-color="#FEFFDD"/>
</linearGradient>
</defs>
</svg>
