<svg width="320" height="432" viewBox="0 0 320 432" fill="none" xmlns="http://www.w3.org/2000/svg">
<path d="M0 0H320V432H0V0Z" fill="url(#paint0_linear_286_3)"/>
<path d="M223.675 248.968L229 246" stroke="black" stroke-linecap="round"/>
<path d="M229 246L231.89 247.804" stroke="black" stroke-linecap="round"/>
<path d="M239 248L234 246" stroke="black" stroke-linecap="round"/>
<path d="M234 246L232 248" stroke="black" stroke-linecap="round"/>
<path d="M215.366 278.468L210.041 275.5" stroke="black" stroke-linecap="round"/>
<path d="M210.041 275.5L207.151 277.304" stroke="black" stroke-linecap="round"/>
<path d="M200.041 277.5L205.041 275.5" stroke="black" stroke-linecap="round"/>
<path d="M205.041 275.5L207.041 277.5" stroke="black" stroke-linecap="round"/>
<path d="M262.319 258.468L267.644 255.5" stroke="black" stroke-linecap="round"/>
<path d="M267.644 255.5L270.534 257.304" stroke="black" stroke-linecap="round"/>
<path d="M277.644 257.5L272.644 255.5" stroke="black" stroke-linecap="round"/>
<path d="M272.644 255.5L270.644 257.5" stroke="black" stroke-linecap="round"/>
<g filter="url(#filter0_i_286_3)">
<ellipse cx="131" cy="115.529" rx="22.8" ry="18.5294" fill="#F8F8F8"/>
<ellipse cx="153.8" cy="128.5" rx="22.8" ry="18.5294" fill="#F8F8F8"/>
<ellipse cx="165.2" cy="141.471" rx="22.8" ry="18.5294" fill="#F8F8F8"/>
<ellipse cx="131" cy="141.471" rx="22.8" ry="18.5294" fill="#F8F8F8"/>
<ellipse cx="149.24" cy="141.471" rx="22.8" ry="18.5294" fill="#F8F8F8"/>
<ellipse cx="112.76" cy="141.471" rx="22.8" ry="18.5294" fill="#F8F8F8"/>
<ellipse cx="96.8" cy="141.471" rx="22.8" ry="18.5294" fill="#F8F8F8"/>
<ellipse cx="108.2" cy="128.5" rx="22.8" ry="18.5294" fill="#F8F8F8"/>
</g>
<g filter="url(#filter1_i_286_3)">
<ellipse cx="254.905" cy="176.647" rx="15.5619" ry="12.6471" fill="#F8F8F8"/>
<ellipse cx="270.467" cy="185.5" rx="15.5619" ry="12.6471" fill="#F8F8F8"/>
<ellipse cx="278.248" cy="194.353" rx="15.5619" ry="12.6471" fill="#F8F8F8"/>
<ellipse cx="254.905" cy="194.353" rx="15.5619" ry="12.6471" fill="#F8F8F8"/>
<ellipse cx="267.354" cy="194.353" rx="15.5619" ry="12.6471" fill="#F8F8F8"/>
<ellipse cx="242.455" cy="194.353" rx="15.5619" ry="12.6471" fill="#F8F8F8"/>
<ellipse cx="231.562" cy="194.353" rx="15.5619" ry="12.6471" fill="#F8F8F8"/>
<ellipse cx="239.343" cy="185.5" rx="15.5619" ry="12.6471" fill="#F8F8F8"/>
</g>
<g filter="url(#filter2_i_286_3)">
<ellipse cx="57.9047" cy="197.647" rx="15.5619" ry="12.6471" fill="#F8F8F8"/>
<ellipse cx="73.4667" cy="206.5" rx="15.5619" ry="12.6471" fill="#F8F8F8"/>
<ellipse cx="81.2477" cy="215.353" rx="15.5619" ry="12.6471" fill="#F8F8F8"/>
<ellipse cx="57.9047" cy="215.353" rx="15.5619" ry="12.6471" fill="#F8F8F8"/>
<ellipse cx="70.3544" cy="215.353" rx="15.5619" ry="12.6471" fill="#F8F8F8"/>
<ellipse cx="45.4552" cy="215.353" rx="15.5619" ry="12.6471" fill="#F8F8F8"/>
<ellipse cx="34.5619" cy="215.353" rx="15.5619" ry="12.6471" fill="#F8F8F8"/>
<ellipse cx="42.3429" cy="206.5" rx="15.5619" ry="12.6471" fill="#F8F8F8"/>
</g>
<defs>
<filter id="filter0_i_286_3" x="74" y="93" width="116" height="67" filterUnits="userSpaceOnUse" color-interpolation-filters="sRGB">
<feFlood flood-opacity="0" result="BackgroundImageFix"/>
<feBlend mode="normal" in="SourceGraphic" in2="BackgroundImageFix" result="shape"/>
<feColorMatrix in="SourceAlpha" type="matrix" values="0 0 0 0 0 0 0 0 0 0 0 0 0 0 0 0 0 0 127 0" result="hardAlpha"/>
<feOffset dx="2" dy="-4"/>
<feGaussianBlur stdDeviation="2.5"/>
<feComposite in2="hardAlpha" operator="arithmetic" k2="-1" k3="1"/>
<feColorMatrix type="matrix" values="0 0 0 0 0 0 0 0 0 0 0 0 0 0 0 0 0 0 0.25 0"/>
<feBlend mode="normal" in2="shape" result="effect1_innerShadow_286_3"/>
</filter>
<filter id="filter1_i_286_3" x="216" y="160" width="78.8096" height="47" filterUnits="userSpaceOnUse" color-interpolation-filters="sRGB">
<feFlood flood-opacity="0" result="BackgroundImageFix"/>
<feBlend mode="normal" in="SourceGraphic" in2="BackgroundImageFix" result="shape"/>
<feColorMatrix in="SourceAlpha" type="matrix" values="0 0 0 0 0 0 0 0 0 0 0 0 0 0 0 0 0 0 127 0" result="hardAlpha"/>
<feOffset dx="1" dy="-4"/>
<feGaussianBlur stdDeviation="2.5"/>
<feComposite in2="hardAlpha" operator="arithmetic" k2="-1" k3="1"/>
<feColorMatrix type="matrix" values="0 0 0 0 0 0 0 0 0 0 0 0 0 0 0 0 0 0 0.25 0"/>
<feBlend mode="normal" in2="shape" result="effect1_innerShadow_286_3"/>
</filter>
<filter id="filter2_i_286_3" x="19" y="183" width="79.8096" height="45" filterUnits="userSpaceOnUse" color-interpolation-filters="sRGB">
<feFlood flood-opacity="0" result="BackgroundImageFix"/>
<feBlend mode="normal" in="SourceGraphic" in2="BackgroundImageFix" result="shape"/>
<feColorMatrix in="SourceAlpha" type="matrix" values="0 0 0 0 0 0 0 0 0 0 0 0 0 0 0 0 0 0 127 0" result="hardAlpha"/>
<feOffset dx="2" dy="-2"/>
<feGaussianBlur stdDeviation="3.5"/>
<feComposite in2="hardAlpha" operator="arithmetic" k2="-1" k3="1"/>
<feColorMatrix type="matrix" values="0 0 0 0 0 0 0 0 0 0 0 0 0 0 0 0 0 0 0.25 0"/>
<feBlend mode="normal" in2="shape" result="effect1_innerShadow_286_3"/>
</filter>
<linearGradient id="paint0_linear_286_3" x1="178.5" y1="124" x2="301" y2="49" gradientUnits="userSpaceOnUse">
<stop stop-color="#06B7C2"/>
<stop offset="1" stop-color="#FEFFDD"/>
</linearGradient>
</defs>
</svg>
